<svg xmlns="http://www.w3.org/2000/svg" width="1700" height="700" viewBox="0 0 1700 700">
<rect x="0" y="0" width="1700" height="700" fill="white"/>
<text x="850.0" y="34" text-anchor="middle" font-size="24" fill="#111827" font-family="Arial">Per-Run Total Tokens</text>
<text x="850.0" y="682" text-anchor="middle" font-size="14" fill="#111827" font-family="Arial">Benchmark Run</text>
<text x="22" y="275.0" text-anchor="middle" font-size="14" fill="#111827" font-family="Arial" transform="rotate(-90 22 275.0)">Tokens</text>
<line x1="90" y1="480.0" x2="1660" y2="480.0" stroke="#d1d5db" stroke-width="1"/>
<text x="80" y="484.0" text-anchor="end" font-size="12" fill="#111827" font-family="Arial">0</text>
<line x1="90" y1="398.0" x2="1660" y2="398.0" stroke="#d1d5db" stroke-width="1"/>
<text x="80" y="402.0" text-anchor="end" font-size="12" fill="#111827" font-family="Arial">6350</text>
<line x1="90" y1="316.0" x2="1660" y2="316.0" stroke="#d1d5db" stroke-width="1"/>
<text x="80" y="320.0" text-anchor="end" font-size="12" fill="#111827" font-family="Arial">12700</text>
<line x1="90" y1="234.0" x2="1660" y2="234.0" stroke="#d1d5db" stroke-width="1"/>
<text x="80" y="238.0" text-anchor="end" font-size="12" fill="#111827" font-family="Arial">19050</text>
<line x1="90" y1="152.0" x2="1660" y2="152.0" stroke="#d1d5db" stroke-width="1"/>
<text x="80" y="156.0" text-anchor="end" font-size="12" fill="#111827" font-family="Arial">25399</text>
<line x1="90" y1="70.0" x2="1660" y2="70.0" stroke="#d1d5db" stroke-width="1"/>
<text x="80" y="74.0" text-anchor="end" font-size="12" fill="#111827" font-family="Arial">31749</text>
<line x1="90" y1="70" x2="90" y2="480" stroke="#111827" stroke-width="1.5"/>
<line x1="90" y1="480" x2="1660" y2="480" stroke="#111827" stroke-width="1.5"/>
<path d="M 90.00 475.73 L 136.18 475.92 L 182.35 476.02 L 228.53 476.02 L 274.71 476.06 L 320.88 463.73 L 367.06 464.15 L 413.24 464.10 L 459.41 463.82 L 505.59 463.61 L 551.76 438.31 L 597.94 441.81 L 644.12 442.82 L 690.29 442.36 L 736.47 452.31 L 782.65 464.05 L 828.82 462.10 L 875.00 465.33 L 921.18 465.87 L 967.35 458.60 L 1013.53 417.70 L 1059.71 418.17 L 1105.88 416.57 L 1152.06 413.09 L 1198.24 411.08 L 1244.41 462.40 L 1290.59 463.68 L 1336.76 463.65 L 1382.94 463.06 L 1429.12 461.69 L 1475.29 462.22 L 1521.47 462.99 L 1567.65 460.78 L 1613.82 462.19 L 1660.00 463.32" fill="none" stroke="#2563eb" stroke-width="3"/>
<path d="M 90.00 362.29 L 136.18 287.35 L 182.35 362.23 L 228.53 405.46 L 274.71 363.78 L 320.88 376.26 L 367.06 278.74 L 413.24 293.04 L 459.41 295.05 L 505.59 317.48 L 551.76 346.91 L 597.94 341.27 L 644.12 347.21 L 690.29 246.78 L 736.47 309.37 L 782.65 307.38 L 828.82 274.04 L 875.00 386.71 L 921.18 265.80 L 967.35 319.51 L 1013.53 336.01 L 1059.71 189.73 L 1105.88 175.44 L 1152.06 192.37 L 1198.24 189.51 L 1244.41 284.04 L 1290.59 144.53 L 1336.76 139.83 L 1382.94 141.83 L 1429.12 171.44 L 1475.29 107.27 L 1521.47 120.59 L 1567.65 139.48 L 1660.00 122.32" fill="none" stroke="#dc2626" stroke-width="3"/>
<text x="90.0" y="498" text-anchor="end" font-size="10" fill="#111827" font-family="Arial" transform="rotate(-45 90.0 498)">got-r001</text>
<circle cx="90.0" cy="475.7255750520484" r="4" fill="#2563eb"/>
<circle cx="90.0" cy="362.29189304961056" r="4" fill="#dc2626"/>
<text x="136.1764705882353" y="498" text-anchor="end" font-size="10" fill="#111827" font-family="Arial" transform="rotate(-45 136.1764705882353 498)">got-r002</text>
<circle cx="136.1764705882353" cy="475.91928011011265" r="4" fill="#2563eb"/>
<circle cx="136.1764705882353" cy="287.3538629198124" r="4" fill="#dc2626"/>
<text x="182.3529411764706" y="498" text-anchor="end" font-size="10" fill="#111827" font-family="Arial" transform="rotate(-45 182.3529411764706 498)">got-r003</text>
<circle cx="182.3529411764706" cy="476.0225894744136" r="4" fill="#2563eb"/>
<circle cx="182.3529411764706" cy="362.22732469692244" r="4" fill="#dc2626"/>
<text x="228.52941176470588" y="498" text-anchor="end" font-size="10" fill="#111827" font-family="Arial" transform="rotate(-45 228.52941176470588 498)">got-r004</text>
<circle cx="228.52941176470588" cy="476.0225894744136" r="4" fill="#2563eb"/>
<circle cx="228.52941176470588" cy="405.46229365686804" r="4" fill="#dc2626"/>
<text x="274.7058823529412" y="498" text-anchor="end" font-size="10" fill="#111827" font-family="Arial" transform="rotate(-45 274.7058823529412 498)">got-r005</text>
<circle cx="274.7058823529412" cy="476.06133048602646" r="4" fill="#2563eb"/>
<circle cx="274.7058823529412" cy="363.77696516143664" r="4" fill="#dc2626"/>
<text x="320.88235294117646" y="498" text-anchor="end" font-size="10" fill="#111827" font-family="Arial" transform="rotate(-45 320.88235294117646 498)">authproxy-r001</text>
<circle cx="320.88235294117646" cy="463.7287751226011" r="4" fill="#2563eb"/>
<circle cx="320.88235294117646" cy="376.2644845713134" r="4" fill="#dc2626"/>
<text x="367.05882352941177" y="498" text-anchor="end" font-size="10" fill="#111827" font-family="Arial" transform="rotate(-45 367.05882352941177 498)">authproxy-r002</text>
<circle cx="367.05882352941177" cy="464.15492625034256" r="4" fill="#2563eb"/>
<circle cx="367.05882352941177" cy="278.7404446712211" r="4" fill="#dc2626"/>
<text x="413.2352941176471" y="498" text-anchor="end" font-size="10" fill="#111827" font-family="Arial" transform="rotate(-45 413.2352941176471 498)">authproxy-r003</text>
<circle cx="413.2352941176471" cy="464.10327156819204" r="4" fill="#2563eb"/>
<circle cx="413.2352941176471" cy="293.0358779563644" r="4" fill="#dc2626"/>
<text x="459.4117647058824" y="498" text-anchor="end" font-size="10" fill="#111827" font-family="Arial" transform="rotate(-45 459.4117647058824 498)">authproxy-r004</text>
<circle cx="459.4117647058824" cy="463.8191708163645" r="4" fill="#2563eb"/>
<circle cx="459.4117647058824" cy="295.0504105602329" r="4" fill="#dc2626"/>
<text x="505.5882352941177" y="498" text-anchor="end" font-size="10" fill="#111827" font-family="Arial" transform="rotate(-45 505.5882352941177 498)">authproxy-r005</text>
<circle cx="505.5882352941177" cy="463.61255208776254" r="4" fill="#2563eb"/>
<circle cx="505.5882352941177" cy="317.48145628407553" r="4" fill="#dc2626"/>
<text x="551.7647058823529" y="498" text-anchor="end" font-size="10" fill="#111827" font-family="Arial" transform="rotate(-45 551.7647058823529 498)">clinical-r001</text>
<circle cx="551.7647058823529" cy="438.3146715045686" r="4" fill="#2563eb"/>
<circle cx="551.7647058823529" cy="346.91171143930734" r="4" fill="#dc2626"/>
<text x="597.9411764705883" y="498" text-anchor="end" font-size="10" fill="#111827" font-family="Arial" transform="rotate(-45 597.9411764705883 498)">clinical-r002</text>
<circle cx="597.9411764705883" cy="441.81427622026314" r="4" fill="#2563eb"/>
<circle cx="597.9411764705883" cy="341.26843741436824" r="4" fill="#dc2626"/>
<text x="644.1176470588235" y="498" text-anchor="end" font-size="10" fill="#111827" font-family="Arial" transform="rotate(-45 644.1176470588235 498)">clinical-r003</text>
<circle cx="644.1176470588235" cy="442.8215425221973" r="4" fill="#2563eb"/>
<circle cx="644.1176470588235" cy="347.2087258616725" r="4" fill="#dc2626"/>
<text x="690.2941176470589" y="498" text-anchor="end" font-size="10" fill="#111827" font-family="Arial" transform="rotate(-45 690.2941176470589 498)">clinical-r004</text>
<circle cx="690.2941176470589" cy="442.3566503828431" r="4" fill="#2563eb"/>
<circle cx="690.2941176470589" cy="246.7791100906162" r="4" fill="#dc2626"/>
<text x="736.4705882352941" y="498" text-anchor="end" font-size="10" fill="#111827" font-family="Arial" transform="rotate(-45 736.4705882352941 498)">clinical-r005</text>
<circle cx="736.4705882352941" cy="452.31309036734666" r="4" fill="#2563eb"/>
<circle cx="736.4705882352941" cy="309.3716711864514" r="4" fill="#dc2626"/>
<text x="782.6470588235295" y="498" text-anchor="end" font-size="10" fill="#111827" font-family="Arial" transform="rotate(-45 782.6470588235295 498)">launch_note_app-r001</text>
<circle cx="782.6470588235295" cy="464.0516168860416" r="4" fill="#2563eb"/>
<circle cx="782.6470588235295" cy="307.38296592365816" r="4" fill="#dc2626"/>
<text x="828.8235294117648" y="498" text-anchor="end" font-size="10" fill="#111827" font-family="Arial" transform="rotate(-45 828.8235294117648 498)">launch_note_app-r002</text>
<circle cx="828.8235294117648" cy="462.10165263486124" r="4" fill="#2563eb"/>
<circle cx="828.8235294117648" cy="274.0398685955281" r="4" fill="#dc2626"/>
<text x="875.0" y="498" text-anchor="end" font-size="10" fill="#111827" font-family="Arial" transform="rotate(-45 875.0 498)">launch_note_app-r003</text>
<circle cx="875.0" cy="465.3300702692658" r="4" fill="#2563eb"/>
<circle cx="875.0" cy="386.71164403624647" r="4" fill="#dc2626"/>
<text x="921.1764705882354" y="498" text-anchor="end" font-size="10" fill="#111827" font-family="Arial" transform="rotate(-45 921.1764705882354 498)">launch_note_app-r004</text>
<circle cx="921.1764705882354" cy="465.87244443184574" r="4" fill="#2563eb"/>
<circle cx="921.1764705882354" cy="265.8009467925277" r="4" fill="#dc2626"/>
<text x="967.3529411764706" y="498" text-anchor="end" font-size="10" fill="#111827" font-family="Arial" transform="rotate(-45 967.3529411764706 498)">launch_note_app-r005</text>
<circle cx="967.3529411764706" cy="458.6020479191667" r="4" fill="#2563eb"/>
<circle cx="967.3529411764706" cy="319.5089025584816" r="4" fill="#dc2626"/>
<text x="1013.529411764706" y="498" text-anchor="end" font-size="10" fill="#111827" font-family="Arial" transform="rotate(-45 1013.529411764706 498)">pdf_cersei_warning-r001</text>
<circle cx="1013.529411764706" cy="417.70445332653003" r="4" fill="#2563eb"/>
<circle cx="1013.529411764706" cy="336.0125735055576" r="4" fill="#dc2626"/>
<text x="1059.7058823529412" y="498" text-anchor="end" font-size="10" fill="#111827" font-family="Arial" transform="rotate(-45 1059.7058823529412 498)">pdf_cersei_warning-r002</text>
<circle cx="1059.7058823529412" cy="418.1693454658843" r="4" fill="#2563eb"/>
<circle cx="1059.7058823529412" cy="189.72651365541918" r="4" fill="#dc2626"/>
<text x="1105.8823529411766" y="498" text-anchor="end" font-size="10" fill="#111827" font-family="Arial" transform="rotate(-45 1105.8823529411766 498)">pdf_cersei_warning-r003</text>
<circle cx="1105.8823529411766" cy="416.56805031921965" r="4" fill="#2563eb"/>
<circle cx="1105.8823529411766" cy="175.44399404081355" r="4" fill="#dc2626"/>
<text x="1152.058823529412" y="498" text-anchor="end" font-size="10" fill="#111827" font-family="Arial" transform="rotate(-45 1152.058823529412 498)">pdf_cersei_warning-r004</text>
<circle cx="1152.058823529412" cy="413.09427294460033" r="4" fill="#2563eb"/>
<circle cx="1152.058823529412" cy="192.37381611563092" r="4" fill="#dc2626"/>
<text x="1198.235294117647" y="498" text-anchor="end" font-size="10" fill="#111827" font-family="Arial" transform="rotate(-45 1198.235294117647 498)">pdf_cersei_warning-r005</text>
<circle cx="1198.235294117647" cy="411.0797403407319" r="4" fill="#2563eb"/>
<circle cx="1198.235294117647" cy="189.5069812562797" r="4" fill="#dc2626"/>
<text x="1244.4117647058824" y="498" text-anchor="end" font-size="10" fill="#111827" font-family="Arial" transform="rotate(-45 1244.4117647058824 498)">tsp_branch_bound-r001</text>
<circle cx="1244.4117647058824" cy="462.3986670572265" r="4" fill="#2563eb"/>
<circle cx="1244.4117647058824" cy="284.03504959164457" r="4" fill="#dc2626"/>
<text x="1290.5882352941178" y="498" text-anchor="end" font-size="10" fill="#111827" font-family="Arial" transform="rotate(-45 1290.5882352941178 498)">tsp_branch_bound-r002</text>
<circle cx="1290.5882352941178" cy="463.67712044045066" r="4" fill="#2563eb"/>
<circle cx="1290.5882352941178" cy="144.52866677375567" r="4" fill="#dc2626"/>
<text x="1336.764705882353" y="498" text-anchor="end" font-size="10" fill="#111827" font-family="Arial" transform="rotate(-45 1336.764705882353 498)">tsp_branch_bound-r003</text>
<circle cx="1336.764705882353" cy="463.65129309937544" r="4" fill="#2563eb"/>
<circle cx="1336.764705882353" cy="139.82809069806268" r="4" fill="#dc2626"/>
<text x="1382.9411764705883" y="498" text-anchor="end" font-size="10" fill="#111827" font-family="Arial" transform="rotate(-45 1382.9411764705883 498)">tsp_branch_bound-r004</text>
<circle cx="1382.9411764705883" cy="463.05726425464496" r="4" fill="#2563eb"/>
<circle cx="1382.9411764705883" cy="141.82970963139348" r="4" fill="#dc2626"/>
<text x="1429.1176470588236" y="498" text-anchor="end" font-size="10" fill="#111827" font-family="Arial" transform="rotate(-45 1429.1176470588236 498)">tsp_branch_bound-r005</text>
<circle cx="1429.1176470588236" cy="461.6884151776575" r="4" fill="#2563eb"/>
<circle cx="1429.1176470588236" cy="171.4407561741519" r="4" fill="#dc2626"/>
<text x="1475.294117647059" y="498" text-anchor="end" font-size="10" fill="#111827" font-family="Arial" transform="rotate(-45 1475.294117647059 498)">stochastic_tsp-r001</text>
<circle cx="1475.294117647059" cy="462.2178756696998" r="4" fill="#2563eb"/>
<circle cx="1475.294117647059" cy="107.27272727272731" r="4" fill="#dc2626"/>
<text x="1521.4705882352941" y="498" text-anchor="end" font-size="10" fill="#111827" font-family="Arial" transform="rotate(-45 1521.4705882352941 498)">stochastic_tsp-r002</text>
<circle cx="1521.4705882352941" cy="462.9926959019569" r="4" fill="#2563eb"/>
<circle cx="1521.4705882352941" cy="120.5867215970116" r="4" fill="#dc2626"/>
<text x="1567.6470588235295" y="498" text-anchor="end" font-size="10" fill="#111827" font-family="Arial" transform="rotate(-45 1567.6470588235295 498)">stochastic_tsp-r003</text>
<circle cx="1567.6470588235295" cy="460.7844582400242" r="4" fill="#2563eb"/>
<circle cx="1567.6470588235295" cy="139.479421593547" r="4" fill="#dc2626"/>
<text x="1613.8235294117649" y="498" text-anchor="end" font-size="10" fill="#111827" font-family="Arial" transform="rotate(-45 1613.8235294117649 498)">stochastic_tsp-r004</text>
<circle cx="1613.8235294117649" cy="462.1920483286246" r="4" fill="#2563eb"/>
<text x="1660.0" y="498" text-anchor="end" font-size="10" fill="#111827" font-family="Arial" transform="rotate(-45 1660.0 498)">stochastic_tsp-r005</text>
<circle cx="1660.0" cy="463.31553766539736" r="4" fill="#2563eb"/>
<circle cx="1660.0" cy="122.31715344905246" r="4" fill="#dc2626"/>
<rect x="1500" y="50" width="14" height="14" fill="#2563eb"/>
<text x="1522" y="62" font-size="12" fill="#111827" font-family="Arial">LLM</text>
<rect x="1580" y="50" width="14" height="14" fill="#dc2626"/>
<text x="1602" y="62" font-size="12" fill="#111827" font-family="Arial">RLM</text>
</svg>