<svg xmlns="http://www.w3.org/2000/svg" width="1400" height="620" viewBox="0 0 1400 620">
<rect x="0" y="0" width="1400" height="620" fill="white"/>
<text x="700.0" y="34" text-anchor="middle" font-size="24" fill="#111827" font-family="Arial">Average Total Tokens by Benchmark</text>
<text x="700.0" y="602" text-anchor="middle" font-size="14" fill="#111827" font-family="Arial">Benchmark</text>
<text x="22" y="255.0" text-anchor="middle" font-size="14" fill="#111827" font-family="Arial" transform="rotate(-90 22 255.0)">Tokens</text>
<line x1="90" y1="440.0" x2="1360" y2="440.0" stroke="#d1d5db" stroke-width="1"/>
<text x="80" y="444.0" text-anchor="end" font-size="12" fill="#111827" font-family="Arial">0</text>
<line x1="90" y1="366.0" x2="1360" y2="366.0" stroke="#d1d5db" stroke-width="1"/>
<text x="80" y="370.0" text-anchor="end" font-size="12" fill="#111827" font-family="Arial">5283</text>
<line x1="90" y1="292.0" x2="1360" y2="292.0" stroke="#d1d5db" stroke-width="1"/>
<text x="80" y="296.0" text-anchor="end" font-size="12" fill="#111827" font-family="Arial">10567</text>
<line x1="90" y1="218.0" x2="1360" y2="218.0" stroke="#d1d5db" stroke-width="1"/>
<text x="80" y="222.0" text-anchor="end" font-size="12" fill="#111827" font-family="Arial">15850</text>
<line x1="90" y1="144.0" x2="1360" y2="144.0" stroke="#d1d5db" stroke-width="1"/>
<text x="80" y="148.0" text-anchor="end" font-size="12" fill="#111827" font-family="Arial">21134</text>
<line x1="90" y1="70.0" x2="1360" y2="70.0" stroke="#d1d5db" stroke-width="1"/>
<text x="80" y="74.0" text-anchor="end" font-size="12" fill="#111827" font-family="Arial">26417</text>
<line x1="90" y1="70" x2="90" y2="440" stroke="#111827" stroke-width="1.5"/>
<line x1="90" y1="440" x2="1360" y2="440" stroke="#111827" stroke-width="1.5"/>
<rect x="123.91428571428571" y="435.6161436145447" width="50.800000000000004" height="4.383856385455333" fill="#2563eb" rx="2"/>
<rect x="186.71428571428572" y="288.9082187559857" width="50.800000000000004" height="151.09178124401436" fill="#dc2626" rx="2"/>
<text x="149.31428571428572" y="429.6161436145447" text-anchor="middle" font-size="10" fill="#2563eb" font-family="Arial">313.0</text>
<text x="212.11428571428573" y="282.9082187559857" text-anchor="middle" font-size="10" fill="#dc2626" font-family="Arial">10787.7</text>
<text x="180.71428571428572" y="458" text-anchor="end" font-size="11" fill="#111827" font-family="Arial" transform="rotate(-35 180.71428571428572 458)">Battle of the Bastards</text>
<rect x="305.34285714285716" y="422.49818869244416" width="50.800000000000004" height="17.501811307555855" fill="#2563eb" rx="2"/>
<rect x="368.14285714285717" y="252.8219376789068" width="50.800000000000004" height="187.1780623210932" fill="#dc2626" rx="2"/>
<text x="330.74285714285713" y="416.49818869244416" text-anchor="middle" font-size="10" fill="#2563eb" font-family="Arial">1249.6</text>
<text x="393.54285714285714" y="246.8219376789068" text-anchor="middle" font-size="10" fill="#dc2626" font-family="Arial">13364.2</text>
<text x="362.14285714285717" y="458" text-anchor="end" font-size="11" fill="#111827" font-family="Arial" transform="rotate(-35 362.14285714285717 458)">AuthProxy Long Context</text>
<rect x="486.77142857142854" y="399.5858862612416" width="50.800000000000004" height="40.414113738758346" fill="#2563eb" rx="2"/>
<rect x="549.5714285714286" y="275.2496348994488" width="50.800000000000004" height="164.75036510055122" fill="#dc2626" rx="2"/>
<text x="512.1714285714286" y="393.5858862612416" text-anchor="middle" font-size="10" fill="#2563eb" font-family="Arial">2885.5</text>
<text x="574.9714285714285" y="269.2496348994488" text-anchor="middle" font-size="10" fill="#dc2626" font-family="Arial">11762.9</text>
<text x="543.5714285714286" y="458" text-anchor="end" font-size="11" fill="#111827" font-family="Arial" transform="rotate(-35 543.5714285714286 458)">Clinical Long Context</text>
<rect x="668.1999999999999" y="419.9561122261178" width="50.800000000000004" height="20.043887773882194" fill="#2563eb" rx="2"/>
<rect x="730.9999999999999" y="269.57303108786715" width="50.800000000000004" height="170.42696891213285" fill="#dc2626" rx="2"/>
<text x="693.5999999999999" y="413.9561122261178" text-anchor="middle" font-size="10" fill="#2563eb" font-family="Arial">1431.1</text>
<text x="756.3999999999999" y="263.57303108786715" text-anchor="middle" font-size="10" fill="#dc2626" font-family="Arial">12168.2</text>
<text x="724.9999999999999" y="458" text-anchor="end" font-size="11" fill="#111827" font-family="Arial" transform="rotate(-35 724.9999999999999 458)">Launch Note App</text>
<rect x="849.6285714285714" y="371.87235070245424" width="50.800000000000004" height="68.12764929754577" fill="#2563eb" rx="2"/>
<rect x="912.4285714285713" y="168.09975326849218" width="50.800000000000004" height="271.9002467315078" fill="#dc2626" rx="2"/>
<text x="875.0285714285714" y="365.87235070245424" text-anchor="middle" font-size="10" fill="#2563eb" font-family="Arial">4864.2</text>
<text x="937.8285714285713" y="162.09975326849218" text-anchor="middle" font-size="10" fill="#dc2626" font-family="Arial">19413.2</text>
<text x="906.4285714285713" y="458" text-anchor="end" font-size="11" fill="#111827" font-family="Arial" transform="rotate(-35 906.4285714285713 458)">PDF Cersei Warning</text>
<rect x="1031.057142857143" y="421.2222483834506" width="50.800000000000004" height="18.77775161654941" fill="#2563eb" rx="2"/>
<rect x="1093.857142857143" y="103.63636363636363" width="50.800000000000004" height="336.3636363636364" fill="#dc2626" rx="2"/>
<text x="1056.457142857143" y="415.2222483834506" text-anchor="middle" font-size="10" fill="#2563eb" font-family="Arial">1340.7</text>
<text x="1119.257142857143" y="97.63636363636363" text-anchor="middle" font-size="10" fill="#dc2626" font-family="Arial">24015.8</text>
<text x="1087.857142857143" y="458" text-anchor="end" font-size="11" fill="#111827" font-family="Arial" transform="rotate(-35 1087.857142857143 458)">Under-specified TSP</text>
<rect x="1212.4857142857143" y="419.9281003642299" width="50.800000000000004" height="20.071899635770084" fill="#2563eb" rx="2"/>
<rect x="1275.2857142857142" y="109.34953693363991" width="50.800000000000004" height="330.6504630663601" fill="#dc2626" rx="2"/>
<text x="1237.8857142857144" y="413.9281003642299" text-anchor="middle" font-size="10" fill="#2563eb" font-family="Arial">1433.1</text>
<text x="1300.6857142857143" y="103.34953693363991" text-anchor="middle" font-size="10" fill="#dc2626" font-family="Arial">23607.9</text>
<text x="1269.2857142857142" y="458" text-anchor="end" font-size="11" fill="#111827" font-family="Arial" transform="rotate(-35 1269.2857142857142 458)">Stochastic Adaptive TSP</text>
<rect x="1200" y="50" width="14" height="14" fill="#2563eb"/>
<text x="1222" y="62" font-size="12" fill="#111827" font-family="Arial">LLM</text>
<rect x="1280" y="50" width="14" height="14" fill="#dc2626"/>
<text x="1302" y="62" font-size="12" fill="#111827" font-family="Arial">RLM</text>
</svg>