<svg xmlns="http://www.w3.org/2000/svg" width="1400" height="620" viewBox="0 0 1400 620">
<rect x="0" y="0" width="1400" height="620" fill="white"/>
<text x="700.0" y="34" text-anchor="middle" font-size="24" fill="#111827" font-family="Arial">Average Wall Time by Benchmark</text>
<text x="700.0" y="602" text-anchor="middle" font-size="14" fill="#111827" font-family="Arial">Benchmark</text>
<text x="22" y="255.0" text-anchor="middle" font-size="14" fill="#111827" font-family="Arial" transform="rotate(-90 22 255.0)">Seconds</text>
<line x1="90" y1="440.0" x2="1360" y2="440.0" stroke="#d1d5db" stroke-width="1"/>
<text x="80" y="444.0" text-anchor="end" font-size="12" fill="#111827" font-family="Arial">0</text>
<line x1="90" y1="366.0" x2="1360" y2="366.0" stroke="#d1d5db" stroke-width="1"/>
<text x="80" y="370.0" text-anchor="end" font-size="12" fill="#111827" font-family="Arial">132</text>
<line x1="90" y1="292.0" x2="1360" y2="292.0" stroke="#d1d5db" stroke-width="1"/>
<text x="80" y="296.0" text-anchor="end" font-size="12" fill="#111827" font-family="Arial">263</text>
<line x1="90" y1="218.0" x2="1360" y2="218.0" stroke="#d1d5db" stroke-width="1"/>
<text x="80" y="222.0" text-anchor="end" font-size="12" fill="#111827" font-family="Arial">395</text>
<line x1="90" y1="144.0" x2="1360" y2="144.0" stroke="#d1d5db" stroke-width="1"/>
<text x="80" y="148.0" text-anchor="end" font-size="12" fill="#111827" font-family="Arial">527</text>
<line x1="90" y1="70.0" x2="1360" y2="70.0" stroke="#d1d5db" stroke-width="1"/>
<text x="80" y="74.0" text-anchor="end" font-size="12" fill="#111827" font-family="Arial">658</text>
<line x1="90" y1="70" x2="90" y2="440" stroke="#111827" stroke-width="1.5"/>
<line x1="90" y1="440" x2="1360" y2="440" stroke="#111827" stroke-width="1.5"/>
<rect x="123.91428571428571" y="435.460211664067" width="50.800000000000004" height="4.539788335933005" fill="#2563eb" rx="2"/>
<rect x="186.71428571428572" y="372.6844434749268" width="50.800000000000004" height="67.3155565250732" fill="#dc2626" rx="2"/>
<text x="149.31428571428572" y="429.460211664067" text-anchor="middle" font-size="10" fill="#2563eb" font-family="Arial">8.1</text>
<text x="212.11428571428573" y="366.6844434749268" text-anchor="middle" font-size="10" fill="#dc2626" font-family="Arial">119.8</text>
<text x="180.71428571428572" y="458" text-anchor="end" font-size="11" fill="#111827" font-family="Arial" transform="rotate(-35 180.71428571428572 458)">Battle of the Bastards</text>
<rect x="305.34285714285716" y="426.9966567844732" width="50.800000000000004" height="13.003343215526812" fill="#2563eb" rx="2"/>
<rect x="368.14285714285717" y="343.87081103054527" width="50.800000000000004" height="96.12918896945472" fill="#dc2626" rx="2"/>
<text x="330.74285714285713" y="420.9966567844732" text-anchor="middle" font-size="10" fill="#2563eb" font-family="Arial">23.1</text>
<text x="393.54285714285714" y="337.87081103054527" text-anchor="middle" font-size="10" fill="#dc2626" font-family="Arial">171.0</text>
<text x="362.14285714285717" y="458" text-anchor="end" font-size="11" fill="#111827" font-family="Arial" transform="rotate(-35 362.14285714285717 458)">AuthProxy Long Context</text>
<rect x="486.77142857142854" y="374.47630248383535" width="50.800000000000004" height="65.52369751616465" fill="#2563eb" rx="2"/>
<rect x="549.5714285714286" y="385.13471603023845" width="50.800000000000004" height="54.86528396976158" fill="#dc2626" rx="2"/>
<text x="512.1714285714286" y="368.47630248383535" text-anchor="middle" font-size="10" fill="#2563eb" font-family="Arial">116.6</text>
<text x="574.9714285714285" y="379.13471603023845" text-anchor="middle" font-size="10" fill="#dc2626" font-family="Arial">97.6</text>
<text x="543.5714285714286" y="458" text-anchor="end" font-size="11" fill="#111827" font-family="Arial" transform="rotate(-35 543.5714285714286 458)">Clinical Long Context</text>
<rect x="668.1999999999999" y="381.953997670322" width="50.800000000000004" height="58.04600232967799" fill="#2563eb" rx="2"/>
<rect x="730.9999999999999" y="300.4800570692116" width="50.800000000000004" height="139.5199429307884" fill="#dc2626" rx="2"/>
<text x="693.5999999999999" y="375.953997670322" text-anchor="middle" font-size="10" fill="#2563eb" font-family="Arial">103.3</text>
<text x="756.3999999999999" y="294.4800570692116" text-anchor="middle" font-size="10" fill="#dc2626" font-family="Arial">248.2</text>
<text x="724.9999999999999" y="458" text-anchor="end" font-size="11" fill="#111827" font-family="Arial" transform="rotate(-35 724.9999999999999 458)">Launch Note App</text>
<rect x="849.6285714285714" y="377.43950219994764" width="50.800000000000004" height="62.56049780005238" fill="#2563eb" rx="2"/>
<rect x="912.4285714285713" y="327.21798834674894" width="50.800000000000004" height="112.78201165325106" fill="#dc2626" rx="2"/>
<text x="875.0285714285714" y="371.43950219994764" text-anchor="middle" font-size="10" fill="#2563eb" font-family="Arial">111.3</text>
<text x="937.8285714285713" y="321.21798834674894" text-anchor="middle" font-size="10" fill="#dc2626" font-family="Arial">200.7</text>
<text x="906.4285714285713" y="458" text-anchor="end" font-size="11" fill="#111827" font-family="Arial" transform="rotate(-35 906.4285714285713 458)">PDF Cersei Warning</text>
<rect x="1031.057142857143" y="382.2249123636388" width="50.800000000000004" height="57.7750876363612" fill="#2563eb" rx="2"/>
<rect x="1093.857142857143" y="150.76596519094068" width="50.800000000000004" height="289.2340348090593" fill="#dc2626" rx="2"/>
<text x="1056.457142857143" y="376.2249123636388" text-anchor="middle" font-size="10" fill="#2563eb" font-family="Arial">102.8</text>
<text x="1119.257142857143" y="144.76596519094068" text-anchor="middle" font-size="10" fill="#dc2626" font-family="Arial">514.6</text>
<text x="1087.857142857143" y="458" text-anchor="end" font-size="11" fill="#111827" font-family="Arial" transform="rotate(-35 1087.857142857143 458)">Under-specified TSP</text>
<rect x="1212.4857142857143" y="370.4547368600146" width="50.800000000000004" height="69.54526313998545" fill="#2563eb" rx="2"/>
<rect x="1275.2857142857142" y="103.63636363636368" width="50.800000000000004" height="336.3636363636363" fill="#dc2626" rx="2"/>
<text x="1237.8857142857144" y="364.4547368600146" text-anchor="middle" font-size="10" fill="#2563eb" font-family="Arial">123.7</text>
<text x="1300.6857142857143" y="97.63636363636368" text-anchor="middle" font-size="10" fill="#dc2626" font-family="Arial">598.4</text>
<text x="1269.2857142857142" y="458" text-anchor="end" font-size="11" fill="#111827" font-family="Arial" transform="rotate(-35 1269.2857142857142 458)">Stochastic Adaptive TSP</text>
<rect x="1200" y="50" width="14" height="14" fill="#2563eb"/>
<text x="1222" y="62" font-size="12" fill="#111827" font-family="Arial">LLM</text>
<rect x="1280" y="50" width="14" height="14" fill="#dc2626"/>
<text x="1302" y="62" font-size="12" fill="#111827" font-family="Arial">RLM</text>
</svg>