<svg xmlns="http://www.w3.org/2000/svg" width="1700" height="700" viewBox="0 0 1700 700">
<rect x="0" y="0" width="1700" height="700" fill="white"/>
<text x="850.0" y="34" text-anchor="middle" font-size="24" fill="#111827" font-family="Arial">Per-Run Total Tokens</text>
<text x="850.0" y="682" text-anchor="middle" font-size="14" fill="#111827" font-family="Arial">Benchmark Run</text>
<text x="22" y="275.0" text-anchor="middle" font-size="14" fill="#111827" font-family="Arial" transform="rotate(-90 22 275.0)">Tokens</text>
<line x1="90" y1="480.0" x2="1660" y2="480.0" stroke="#d1d5db" stroke-width="1"/>
<text x="80" y="484.0" text-anchor="end" font-size="12" fill="#111827" font-family="Arial">0</text>
<line x1="90" y1="398.0" x2="1660" y2="398.0" stroke="#d1d5db" stroke-width="1"/>
<text x="80" y="402.0" text-anchor="end" font-size="12" fill="#111827" font-family="Arial">6430</text>
<line x1="90" y1="316.0" x2="1660" y2="316.0" stroke="#d1d5db" stroke-width="1"/>
<text x="80" y="320.0" text-anchor="end" font-size="12" fill="#111827" font-family="Arial">12859</text>
<line x1="90" y1="234.0" x2="1660" y2="234.0" stroke="#d1d5db" stroke-width="1"/>
<text x="80" y="238.0" text-anchor="end" font-size="12" fill="#111827" font-family="Arial">19289</text>
<line x1="90" y1="152.0" x2="1660" y2="152.0" stroke="#d1d5db" stroke-width="1"/>
<text x="80" y="156.0" text-anchor="end" font-size="12" fill="#111827" font-family="Arial">25719</text>
<line x1="90" y1="70.0" x2="1660" y2="70.0" stroke="#d1d5db" stroke-width="1"/>
<text x="80" y="74.0" text-anchor="end" font-size="12" fill="#111827" font-family="Arial">32149</text>
<line x1="90" y1="70" x2="90" y2="480" stroke="#111827" stroke-width="1.5"/>
<line x1="90" y1="480" x2="1660" y2="480" stroke="#111827" stroke-width="1.5"/>
<path d="M 90.00 475.78 L 112.75 475.97 L 135.51 476.07 L 158.26 476.07 L 181.01 476.11 L 203.77 476.03 L 226.52 476.01 L 249.28 476.07 L 272.03 475.93 L 294.78 476.03 L 317.54 463.93 L 340.29 464.35 L 363.04 464.30 L 385.80 464.02 L 408.55 463.82 L 431.30 463.78 L 454.06 463.75 L 476.81 464.20 L 499.57 464.29 L 522.32 464.20 L 545.07 438.83 L 567.83 442.29 L 590.58 443.28 L 613.33 442.82 L 636.09 452.66 L 658.84 439.01 L 681.59 438.85 L 704.35 449.55 L 727.10 439.65 L 749.86 445.07 L 772.61 464.25 L 795.36 462.32 L 818.12 465.51 L 840.87 466.05 L 863.62 458.87 L 886.38 459.00 L 909.13 455.49 L 931.88 464.62 L 954.64 457.73 L 977.39 463.65 L 1000.14 418.48 L 1022.90 418.94 L 1045.65 417.36 L 1068.41 413.93 L 1091.16 411.94 L 1113.91 417.36 L 1136.67 420.07 L 1159.42 419.94 L 1182.17 422.33 L 1204.93 419.32 L 1227.68 462.62 L 1250.43 463.88 L 1273.19 463.85 L 1295.94 463.27 L 1318.70 461.92 L 1341.45 466.10 L 1364.20 461.05 L 1386.96 464.25 L 1409.71 459.74 L 1432.46 462.35 L 1455.22 462.44 L 1477.97 463.20 L 1500.72 461.02 L 1523.48 462.41 L 1546.23 463.52 L 1568.99 460.76 L 1591.74 465.00 L 1614.49 460.47 L 1637.25 454.84 L 1660.00 463.56" fill="none" stroke="#2563eb" stroke-width="3"/>
<path d="M 90.00 363.75 L 112.75 289.75 L 135.51 363.69 L 158.26 406.39 L 181.01 365.22 L 203.77 323.35 L 226.52 322.87 L 249.28 315.46 L 272.03 362.52 L 294.78 311.22 L 317.54 377.55 L 340.29 281.24 L 363.04 295.36 L 385.80 297.35 L 408.55 319.50 L 431.30 276.75 L 454.06 307.81 L 476.81 287.59 L 499.57 352.99 L 522.32 299.49 L 545.07 348.56 L 567.83 342.99 L 590.58 348.86 L 613.33 249.68 L 636.09 311.49 L 658.84 347.31 L 681.59 342.61 L 704.35 320.01 L 727.10 340.17 L 749.86 348.16 L 772.61 309.53 L 795.36 276.60 L 818.12 387.87 L 840.87 268.46 L 863.62 321.50 L 886.38 444.46 L 909.13 299.57 L 931.88 287.11 L 954.64 308.76 L 977.39 344.31 L 1000.14 337.80 L 1022.90 193.33 L 1045.65 179.23 L 1068.41 195.95 L 1091.16 193.12 L 1136.67 176.94 L 1159.42 184.25 L 1182.17 441.04 L 1204.93 190.11 L 1227.68 286.47 L 1250.43 148.70 L 1273.19 144.05 L 1295.94 146.03 L 1318.70 175.27 L 1341.45 166.55 L 1364.20 155.82 L 1386.96 118.32 L 1409.71 181.05 L 1432.46 214.94 L 1455.22 111.90 L 1477.97 125.05 L 1500.72 143.71 L 1546.23 126.76 L 1568.99 128.79 L 1591.74 295.47 L 1614.49 107.27 L 1637.25 235.53 L 1660.00 335.81" fill="none" stroke="#dc2626" stroke-width="3"/>
<text x="90.0" y="498" text-anchor="end" font-size="10" fill="#111827" font-family="Arial" transform="rotate(-45 90.0 498)">got-r001</text>
<circle cx="90.0" cy="475.77866532290676" r="4" fill="#2563eb"/>
<circle cx="90.0" cy="363.7538804178098" r="4" fill="#dc2626"/>
<text x="112.7536231884058" y="498" text-anchor="end" font-size="10" fill="#111827" font-family="Arial" transform="rotate(-45 112.7536231884058 498)">got-r002</text>
<circle cx="112.7536231884058" cy="475.9699644774578" r="4" fill="#2563eb"/>
<circle cx="112.7536231884058" cy="289.7466141604922" r="4" fill="#dc2626"/>
<text x="135.5072463768116" y="498" text-anchor="end" font-size="10" fill="#111827" font-family="Arial" transform="rotate(-45 135.5072463768116 498)">got-r003</text>
<circle cx="135.5072463768116" cy="476.07199069321837" r="4" fill="#2563eb"/>
<circle cx="135.5072463768116" cy="363.69011403295946" r="4" fill="#dc2626"/>
<text x="158.26086956521738" y="498" text-anchor="end" font-size="10" fill="#111827" font-family="Arial" transform="rotate(-45 158.26086956521738 498)">got-r004</text>
<circle cx="158.26086956521738" cy="476.07199069321837" r="4" fill="#2563eb"/>
<circle cx="158.26086956521738" cy="406.3880853287546" r="4" fill="#dc2626"/>
<text x="181.0144927536232" y="498" text-anchor="end" font-size="10" fill="#111827" font-family="Arial" transform="rotate(-45 181.0144927536232 498)">got-r005</text>
<circle cx="181.0144927536232" cy="476.11025052412856" r="4" fill="#2563eb"/>
<circle cx="181.0144927536232" cy="365.2205072693679" r="4" fill="#dc2626"/>
<text x="203.768115942029" y="498" text-anchor="end" font-size="10" fill="#111827" font-family="Arial" transform="rotate(-45 203.768115942029 498)">got-r006</text>
<circle cx="203.768115942029" cy="476.0337308623082" r="4" fill="#2563eb"/>
<circle cx="203.768115942029" cy="323.35149897662734" r="4" fill="#dc2626"/>
<text x="226.52173913043478" y="498" text-anchor="end" font-size="10" fill="#111827" font-family="Arial" transform="rotate(-45 226.52173913043478 498)">got-r007</text>
<circle cx="226.52173913043478" cy="476.008224308368" r="4" fill="#2563eb"/>
<circle cx="226.52173913043478" cy="322.8668744517646" r="4" fill="#dc2626"/>
<text x="249.27536231884056" y="498" text-anchor="end" font-size="10" fill="#111827" font-family="Arial" transform="rotate(-45 249.27536231884056 498)">got-r008</text>
<circle cx="249.27536231884056" cy="476.07199069321837" r="4" fill="#2563eb"/>
<circle cx="249.27536231884056" cy="315.4572205321538" r="4" fill="#dc2626"/>
<text x="272.0289855072464" y="498" text-anchor="end" font-size="10" fill="#111827" font-family="Arial" transform="rotate(-45 272.0289855072464 498)">got-r009</text>
<circle cx="272.0289855072464" cy="475.9317046465476" r="4" fill="#2563eb"/>
<circle cx="272.0289855072464" cy="362.516812551713" r="4" fill="#dc2626"/>
<text x="294.7826086956522" y="498" text-anchor="end" font-size="10" fill="#111827" font-family="Arial" transform="rotate(-45 294.7826086956522 498)">got-r010</text>
<circle cx="294.7826086956522" cy="476.0337308623082" r="4" fill="#2563eb"/>
<circle cx="294.7826086956522" cy="311.2231325780905" r="4" fill="#dc2626"/>
<text x="317.536231884058" y="498" text-anchor="end" font-size="10" fill="#111827" font-family="Arial" transform="rotate(-45 317.536231884058 498)">authproxy-r001</text>
<circle cx="317.536231884058" cy="463.9308710177115" r="4" fill="#2563eb"/>
<circle cx="317.536231884058" cy="377.5529260994258" r="4" fill="#dc2626"/>
<text x="340.28985507246375" y="498" text-anchor="end" font-size="10" fill="#111827" font-family="Arial" transform="rotate(-45 340.28985507246375 498)">authproxy-r002</text>
<circle cx="340.28985507246375" cy="464.3517291577238" r="4" fill="#2563eb"/>
<circle cx="340.28985507246375" cy="281.24017842145537" r="4" fill="#dc2626"/>
<text x="363.04347826086956" y="498" text-anchor="end" font-size="10" fill="#111827" font-family="Arial" transform="rotate(-45 363.04347826086956 498)">authproxy-r003</text>
<circle cx="363.04347826086956" cy="464.3007160498435" r="4" fill="#2563eb"/>
<circle cx="363.04347826086956" cy="295.35805602732313" r="4" fill="#dc2626"/>
<text x="385.7971014492754" y="498" text-anchor="end" font-size="10" fill="#111827" font-family="Arial" transform="rotate(-45 385.7971014492754 498)">authproxy-r004</text>
<circle cx="385.7971014492754" cy="464.020143956502" r="4" fill="#2563eb"/>
<circle cx="385.7971014492754" cy="297.3475672346541" r="4" fill="#dc2626"/>
<text x="408.5507246376811" y="498" text-anchor="end" font-size="10" fill="#111827" font-family="Arial" transform="rotate(-45 408.5507246376811 498)">authproxy-r005</text>
<circle cx="408.5507246376811" cy="463.8160915249809" r="4" fill="#2563eb"/>
<circle cx="408.5507246376811" cy="319.5000093316661" r="4" fill="#dc2626"/>
<text x="431.30434782608694" y="498" text-anchor="end" font-size="10" fill="#111827" font-family="Arial" transform="rotate(-45 431.30434782608694 498)">authproxy-r006</text>
<circle cx="431.30434782608694" cy="463.77783169407064" r="4" fill="#2563eb"/>
<circle cx="431.30434782608694" cy="276.75102492799067" r="4" fill="#dc2626"/>
<text x="454.05797101449275" y="498" text-anchor="end" font-size="10" fill="#111827" font-family="Arial" transform="rotate(-45 454.05797101449275 498)">authproxy-r007</text>
<circle cx="454.05797101449275" cy="463.7523251401305" r="4" fill="#2563eb"/>
<circle cx="454.05797101449275" cy="307.8052543501117" r="4" fill="#dc2626"/>
<text x="476.81159420289856" y="498" text-anchor="end" font-size="10" fill="#111827" font-family="Arial" transform="rotate(-45 476.81159420289856 498)">authproxy-r008</text>
<circle cx="476.81159420289856" cy="464.198689834083" r="4" fill="#2563eb"/>
<circle cx="476.81159420289856" cy="287.59131035255035" r="4" fill="#dc2626"/>
<text x="499.5652173913044" y="498" text-anchor="end" font-size="10" fill="#111827" font-family="Arial" transform="rotate(-45 499.5652173913044 498)">authproxy-r009</text>
<circle cx="499.5652173913044" cy="464.28796277287347" r="4" fill="#2563eb"/>
<circle cx="499.5652173913044" cy="352.99011465507056" r="4" fill="#dc2626"/>
<text x="522.3188405797101" y="498" text-anchor="end" font-size="10" fill="#111827" font-family="Arial" transform="rotate(-45 522.3188405797101 498)">authproxy-r010</text>
<circle cx="522.3188405797101" cy="464.198689834083" r="4" fill="#2563eb"/>
<circle cx="522.3188405797101" cy="299.4901177656259" r="4" fill="#dc2626"/>
<text x="545.072463768116" y="498" text-anchor="end" font-size="10" fill="#111827" font-family="Arial" transform="rotate(-45 545.072463768116 498)">clinical-r001</text>
<circle cx="545.072463768116" cy="438.8324219406133" r="4" fill="#2563eb"/>
<circle cx="545.072463768116" cy="348.56472754645614" r="4" fill="#dc2626"/>
<text x="567.8260869565217" y="498" text-anchor="end" font-size="10" fill="#111827" font-family="Arial" transform="rotate(-45 567.8260869565217 498)">clinical-r002</text>
<circle cx="567.8260869565217" cy="442.2885599995023" r="4" fill="#2563eb"/>
<circle cx="567.8260869565217" cy="342.9915455105355" r="4" fill="#dc2626"/>
<text x="590.5797101449275" y="498" text-anchor="end" font-size="10" fill="#111827" font-family="Arial" transform="rotate(-45 590.5797101449275 498)">clinical-r003</text>
<circle cx="590.5797101449275" cy="443.2833156031678" r="4" fill="#2563eb"/>
<circle cx="590.5797101449275" cy="348.85805291676775" r="4" fill="#dc2626"/>
<text x="613.3333333333334" y="498" text-anchor="end" font-size="10" fill="#111827" font-family="Arial" transform="rotate(-45 613.3333333333334 498)">clinical-r004</text>
<circle cx="613.3333333333334" cy="442.8241976322453" r="4" fill="#2563eb"/>
<circle cx="613.3333333333334" cy="249.67581792053156" r="4" fill="#dc2626"/>
<text x="636.0869565217391" y="498" text-anchor="end" font-size="10" fill="#111827" font-family="Arial" transform="rotate(-45 636.0869565217391 498)">clinical-r005</text>
<circle cx="636.0869565217391" cy="452.6569741761694" r="4" fill="#2563eb"/>
<circle cx="636.0869565217391" cy="311.49095139446194" r="4" fill="#dc2626"/>
<text x="658.8405797101449" y="498" text-anchor="end" font-size="10" fill="#111827" font-family="Arial" transform="rotate(-45 658.8405797101449 498)">clinical-r006</text>
<circle cx="658.8405797101449" cy="439.0109678181943" r="4" fill="#2563eb"/>
<circle cx="658.8405797101449" cy="347.3149064033893" r="4" fill="#dc2626"/>
<text x="681.5942028985507" y="498" text-anchor="end" font-size="10" fill="#111827" font-family="Arial" transform="rotate(-45 681.5942028985507 498)">clinical-r007</text>
<circle cx="681.5942028985507" cy="438.84517521758335" r="4" fill="#2563eb"/>
<circle cx="681.5942028985507" cy="342.60894720143335" r="4" fill="#dc2626"/>
<text x="704.3478260869565" y="498" text-anchor="end" font-size="10" fill="#111827" font-family="Arial" transform="rotate(-45 704.3478260869565 498)">clinical-r008</text>
<circle cx="704.3478260869565" cy="449.5451745954723" r="4" fill="#2563eb"/>
<circle cx="704.3478260869565" cy="320.0101404104689" r="4" fill="#dc2626"/>
<text x="727.1014492753623" y="498" text-anchor="end" font-size="10" fill="#111827" font-family="Arial" transform="rotate(-45 727.1014492753623 498)">clinical-r009</text>
<circle cx="727.1014492753623" cy="439.6486316666978" r="4" fill="#2563eb"/>
<circle cx="727.1014492753623" cy="340.1730713001499" r="4" fill="#dc2626"/>
<text x="749.8550724637681" y="498" text-anchor="end" font-size="10" fill="#111827" font-family="Arial" transform="rotate(-45 749.8550724637681 498)">clinical-r010</text>
<circle cx="749.8550724637681" cy="445.06877437897765" r="4" fill="#2563eb"/>
<circle cx="749.8550724637681" cy="348.1566226834139" r="4" fill="#dc2626"/>
<text x="772.6086956521739" y="498" text-anchor="end" font-size="10" fill="#111827" font-family="Arial" transform="rotate(-45 772.6086956521739 498)">launch_note_app-r001</text>
<circle cx="772.6086956521739" cy="464.2497029419633" r="4" fill="#2563eb"/>
<circle cx="772.6086956521739" cy="309.52694674107113" r="4" fill="#dc2626"/>
<text x="795.3623188405797" y="498" text-anchor="end" font-size="10" fill="#111827" font-family="Arial" transform="rotate(-45 795.3623188405797 498)">launch_note_app-r002</text>
<circle cx="795.3623188405797" cy="462.32395811948265" r="4" fill="#2563eb"/>
<circle cx="795.3623188405797" cy="276.5979856043498" r="4" fill="#dc2626"/>
<text x="818.1159420289855" y="498" text-anchor="end" font-size="10" fill="#111827" font-family="Arial" transform="rotate(-45 818.1159420289855 498)">launch_note_app-r003</text>
<circle cx="818.1159420289855" cy="465.5122773620002" r="4" fill="#2563eb"/>
<circle cx="818.1159420289855" cy="387.8703271682126" r="4" fill="#dc2626"/>
<text x="840.8695652173913" y="498" text-anchor="end" font-size="10" fill="#111827" font-family="Arial" transform="rotate(-45 840.8695652173913 498)">launch_note_app-r004</text>
<circle cx="840.8695652173913" cy="466.04791499474317" r="4" fill="#2563eb"/>
<circle cx="840.8695652173913" cy="268.461394897445" r="4" fill="#dc2626"/>
<text x="863.6231884057971" y="498" text-anchor="end" font-size="10" fill="#111827" font-family="Arial" transform="rotate(-45 863.6231884057971 498)">launch_note_app-r005</text>
<circle cx="863.6231884057971" cy="458.8678200605936" r="4" fill="#2563eb"/>
<circle cx="863.6231884057971" cy="321.5022738159671" r="4" fill="#dc2626"/>
<text x="886.3768115942029" y="498" text-anchor="end" font-size="10" fill="#111827" font-family="Arial" transform="rotate(-45 886.3768115942029 498)">launch_note_app-r006</text>
<circle cx="886.3768115942029" cy="458.99535283029434" r="4" fill="#2563eb"/>
<circle cx="886.3768115942029" cy="444.45661708441423" r="4" fill="#dc2626"/>
<text x="909.1304347826087" y="498" text-anchor="end" font-size="10" fill="#111827" font-family="Arial" transform="rotate(-45 909.1304347826087 498)">launch_note_app-r007</text>
<circle cx="909.1304347826087" cy="455.488201663525" r="4" fill="#2563eb"/>
<circle cx="909.1304347826087" cy="299.56663742744627" r="4" fill="#dc2626"/>
<text x="931.8840579710145" y="498" text-anchor="end" font-size="10" fill="#111827" font-family="Arial" transform="rotate(-45 931.8840579710145 498)">launch_note_app-r008</text>
<circle cx="931.8840579710145" cy="464.61954797409527" r="4" fill="#2563eb"/>
<circle cx="931.8840579710145" cy="287.10668582768767" r="4" fill="#dc2626"/>
<text x="954.6376811594203" y="498" text-anchor="end" font-size="10" fill="#111827" font-family="Arial" transform="rotate(-45 954.6376811594203 498)">launch_note_app-r009</text>
<circle cx="954.6376811594203" cy="457.73277841025737" r="4" fill="#2563eb"/>
<circle cx="954.6376811594203" cy="308.76175012286694" r="4" fill="#dc2626"/>
<text x="977.3913043478261" y="498" text-anchor="end" font-size="10" fill="#111827" font-family="Arial" transform="rotate(-45 977.3913043478261 498)">launch_note_app-r010</text>
<circle cx="977.3913043478261" cy="463.65029892436996" r="4" fill="#2563eb"/>
<circle cx="977.3913043478261" cy="344.3051330384527" r="4" fill="#dc2626"/>
<text x="1000.1449275362319" y="498" text-anchor="end" font-size="10" fill="#111827" font-family="Arial" transform="rotate(-45 1000.1449275362319 498)">pdf_cersei_warning-r001</text>
<circle cx="1000.1449275362319" cy="418.4781918963812" r="4" fill="#2563eb"/>
<circle cx="1000.1449275362319" cy="337.80096178371684" r="4" fill="#dc2626"/>
<text x="1022.8985507246376" y="498" text-anchor="end" font-size="10" fill="#111827" font-family="Arial" transform="rotate(-45 1022.8985507246376 498)">pdf_cersei_warning-r002</text>
<circle cx="1022.8985507246376" cy="418.9373098673037" r="4" fill="#2563eb"/>
<circle cx="1022.8985507246376" cy="193.33184026676122" r="4" fill="#dc2626"/>
<text x="1045.6521739130435" y="498" text-anchor="end" font-size="10" fill="#111827" font-family="Arial" transform="rotate(-45 1045.6521739130435 498)">pdf_cersei_warning-r003</text>
<circle cx="1045.6521739130435" cy="417.355903523015" r="4" fill="#2563eb"/>
<circle cx="1045.6521739130435" cy="179.22671593786356" r="4" fill="#dc2626"/>
<text x="1068.4057971014493" y="498" text-anchor="end" font-size="10" fill="#111827" font-family="Arial" transform="rotate(-45 1068.4057971014493 498)">pdf_cersei_warning-r004</text>
<circle cx="1068.4057971014493" cy="413.9252720180661" r="4" fill="#2563eb"/>
<circle cx="1068.4057971014493" cy="195.94626204562564" r="4" fill="#dc2626"/>
<text x="1091.159420289855" y="498" text-anchor="end" font-size="10" fill="#111827" font-family="Arial" transform="rotate(-45 1091.159420289855 498)">pdf_cersei_warning-r005</text>
<circle cx="1091.159420289855" cy="411.93576081073513" r="4" fill="#2563eb"/>
<circle cx="1091.159420289855" cy="193.11503455827005" r="4" fill="#dc2626"/>
<text x="1113.913043478261" y="498" text-anchor="end" font-size="10" fill="#111827" font-family="Arial" transform="rotate(-45 1113.913043478261 498)">pdf_cersei_warning-r006</text>
<circle cx="1113.913043478261" cy="417.355903523015" r="4" fill="#2563eb"/>
<text x="1136.6666666666667" y="498" text-anchor="end" font-size="10" fill="#111827" font-family="Arial" transform="rotate(-45 1136.6666666666667 498)">pdf_cersei_warning-r007</text>
<circle cx="1136.6666666666667" cy="420.07235151763996" r="4" fill="#2563eb"/>
<circle cx="1136.6666666666667" cy="176.943879360221" r="4" fill="#dc2626"/>
<text x="1159.4202898550725" y="498" text-anchor="end" font-size="10" fill="#111827" font-family="Arial" transform="rotate(-45 1159.4202898550725 498)">pdf_cersei_warning-r008</text>
<circle cx="1159.4202898550725" cy="419.9448187479393" r="4" fill="#2563eb"/>
<circle cx="1159.4202898550725" cy="184.25150706407123" r="4" fill="#dc2626"/>
<text x="1182.1739130434783" y="498" text-anchor="end" font-size="10" fill="#111827" font-family="Arial" transform="rotate(-45 1182.1739130434783 498)">pdf_cersei_warning-r009</text>
<circle cx="1182.1739130434783" cy="422.3296815413424" r="4" fill="#2563eb"/>
<circle cx="1182.1739130434783" cy="441.03873885643543" r="4" fill="#dc2626"/>
<text x="1204.927536231884" y="498" text-anchor="end" font-size="10" fill="#111827" font-family="Arial" transform="rotate(-45 1204.927536231884 498)">pdf_cersei_warning-r010</text>
<circle cx="1204.927536231884" cy="419.3199081764058" r="4" fill="#2563eb"/>
<circle cx="1204.927536231884" cy="190.1052611933335" r="4" fill="#dc2626"/>
<text x="1227.6811594202898" y="498" text-anchor="end" font-size="10" fill="#111827" font-family="Arial" transform="rotate(-45 1227.6811594202898 498)">tsp_branch_bound-r001</text>
<circle cx="1227.6811594202898" cy="462.61728348979426" r="4" fill="#2563eb"/>
<circle cx="1227.6811594202898" cy="286.46902197918416" r="4" fill="#dc2626"/>
<text x="1250.4347826086957" y="498" text-anchor="end" font-size="10" fill="#111827" font-family="Arial" transform="rotate(-45 1250.4347826086957 498)">tsp_branch_bound-r002</text>
<circle cx="1250.4347826086957" cy="463.87985790983123" r="4" fill="#2563eb"/>
<circle cx="1250.4347826086957" cy="148.69537087151542" r="4" fill="#dc2626"/>
<text x="1273.1884057971015" y="498" text-anchor="end" font-size="10" fill="#111827" font-family="Arial" transform="rotate(-45 1273.1884057971015 498)">tsp_branch_bound-r003</text>
<circle cx="1273.1884057971015" cy="463.8543513558911" r="4" fill="#2563eb"/>
<circle cx="1273.1884057971015" cy="144.05317805440984" r="4" fill="#dc2626"/>
<text x="1295.9420289855072" y="498" text-anchor="end" font-size="10" fill="#111827" font-family="Arial" transform="rotate(-45 1295.9420289855072 498)">tsp_branch_bound-r004</text>
<circle cx="1295.9420289855072" cy="463.26770061526787" r="4" fill="#2563eb"/>
<circle cx="1295.9420289855072" cy="146.02993598477076" r="4" fill="#dc2626"/>
<text x="1318.695652173913" y="498" text-anchor="end" font-size="10" fill="#111827" font-family="Arial" transform="rotate(-45 1318.695652173913 498)">tsp_branch_bound-r005</text>
<circle cx="1318.695652173913" cy="461.9158532564404" r="4" fill="#2563eb"/>
<circle cx="1318.695652173913" cy="175.27320007714178" r="4" fill="#dc2626"/>
<text x="1341.4492753623188" y="498" text-anchor="end" font-size="10" fill="#111827" font-family="Arial" transform="rotate(-45 1341.4492753623188 498)">tsp_branch_bound-r006</text>
<circle cx="1341.4492753623188" cy="466.09892810262346" r="4" fill="#2563eb"/>
<circle cx="1341.4492753623188" cy="166.54995862961374" r="4" fill="#dc2626"/>
<text x="1364.2028985507245" y="498" text-anchor="end" font-size="10" fill="#111827" font-family="Arial" transform="rotate(-45 1364.2028985507245 498)">tsp_branch_bound-r007</text>
<circle cx="1364.2028985507245" cy="461.04863042247564" r="4" fill="#2563eb"/>
<circle cx="1364.2028985507245" cy="155.8244526977847" r="4" fill="#dc2626"/>
<text x="1386.9565217391305" y="498" text-anchor="end" font-size="10" fill="#111827" font-family="Arial" transform="rotate(-45 1386.9565217391305 498)">tsp_branch_bound-r008</text>
<circle cx="1386.9565217391305" cy="464.2497029419633" r="4" fill="#2563eb"/>
<circle cx="1386.9565217391305" cy="118.31706512880811" r="4" fill="#dc2626"/>
<text x="1409.7101449275362" y="498" text-anchor="end" font-size="10" fill="#111827" font-family="Arial" transform="rotate(-45 1409.7101449275362 498)">tsp_branch_bound-r009</text>
<circle cx="1409.7101449275362" cy="459.7350428945584" r="4" fill="#2563eb"/>
<circle cx="1409.7101449275362" cy="181.0504345445836" r="4" fill="#dc2626"/>
<text x="1432.463768115942" y="498" text-anchor="end" font-size="10" fill="#111827" font-family="Arial" transform="rotate(-45 1432.463768115942 498)">tsp_branch_bound-r010</text>
<circle cx="1432.463768115942" cy="462.3494646734228" r="4" fill="#2563eb"/>
<circle cx="1432.463768115942" cy="214.93589145406025" r="4" fill="#dc2626"/>
<text x="1455.2173913043478" y="498" text-anchor="end" font-size="10" fill="#111827" font-family="Arial" transform="rotate(-45 1455.2173913043478 498)">stochastic_tsp-r001</text>
<circle cx="1455.2173913043478" cy="462.4387376122133" r="4" fill="#2563eb"/>
<circle cx="1455.2173913043478" cy="111.90216681286279" r="4" fill="#dc2626"/>
<text x="1477.9710144927535" y="498" text-anchor="end" font-size="10" fill="#111827" font-family="Arial" transform="rotate(-45 1477.9710144927535 498)">stochastic_tsp-r002</text>
<circle cx="1477.9710144927535" cy="463.2039342304175" r="4" fill="#2563eb"/>
<circle cx="1477.9710144927535" cy="125.05079536900519" r="4" fill="#dc2626"/>
<text x="1500.7246376811595" y="498" text-anchor="end" font-size="10" fill="#111827" font-family="Arial" transform="rotate(-45 1500.7246376811595 498)">stochastic_tsp-r003</text>
<circle cx="1500.7246376811595" cy="461.0231238685355" r="4" fill="#2563eb"/>
<circle cx="1500.7246376811595" cy="143.70883957621794" r="4" fill="#dc2626"/>
<text x="1523.4782608695652" y="498" text-anchor="end" font-size="10" fill="#111827" font-family="Arial" transform="rotate(-45 1523.4782608695652 498)">stochastic_tsp-r004</text>
<circle cx="1523.4782608695652" cy="462.41323105827314" r="4" fill="#2563eb"/>
<text x="1546.231884057971" y="498" text-anchor="end" font-size="10" fill="#111827" font-family="Arial" transform="rotate(-45 1546.231884057971 498)">stochastic_tsp-r005</text>
<circle cx="1546.231884057971" cy="463.5227661546693" r="4" fill="#2563eb"/>
<circle cx="1546.231884057971" cy="126.75973448299465" r="4" fill="#dc2626"/>
<text x="1568.9855072463768" y="498" text-anchor="end" font-size="10" fill="#111827" font-family="Arial" transform="rotate(-45 1568.9855072463768 498)">stochastic_tsp-r006</text>
<circle cx="1568.9855072463768" cy="460.75530505216403" r="4" fill="#2563eb"/>
<circle cx="1568.9855072463768" cy="128.7875055212358" r="4" fill="#dc2626"/>
<text x="1591.7391304347825" y="498" text-anchor="end" font-size="10" fill="#111827" font-family="Arial" transform="rotate(-45 1591.7391304347825 498)">stochastic_tsp-r007</text>
<circle cx="1591.7391304347825" cy="465.0021462831974" r="4" fill="#2563eb"/>
<circle cx="1591.7391304347825" cy="295.47283552005376" r="4" fill="#dc2626"/>
<text x="1614.4927536231885" y="498" text-anchor="end" font-size="10" fill="#111827" font-family="Arial" transform="rotate(-45 1614.4927536231885 498)">stochastic_tsp-r008</text>
<circle cx="1614.4927536231885" cy="460.47473295882247" r="4" fill="#2563eb"/>
<circle cx="1614.4927536231885" cy="107.27272727272731" r="4" fill="#dc2626"/>
<text x="1637.2463768115942" y="498" text-anchor="end" font-size="10" fill="#111827" font-family="Arial" transform="rotate(-45 1637.2463768115942 498)">stochastic_tsp-r009</text>
<circle cx="1637.2463768115942" cy="454.83778453805144" r="4" fill="#2563eb"/>
<circle cx="1637.2463768115942" cy="235.53243376072365" r="4" fill="#dc2626"/>
<text x="1660.0" y="498" text-anchor="end" font-size="10" fill="#111827" font-family="Arial" transform="rotate(-45 1660.0 498)">stochastic_tsp-r010</text>
<circle cx="1660.0" cy="463.5610259855795" r="4" fill="#2563eb"/>
<circle cx="1660.0" cy="335.81145057638594" r="4" fill="#dc2626"/>
<rect x="1500" y="50" width="14" height="14" fill="#2563eb"/>
<text x="1522" y="62" font-size="12" fill="#111827" font-family="Arial">LLM</text>
<rect x="1580" y="50" width="14" height="14" fill="#dc2626"/>
<text x="1602" y="62" font-size="12" fill="#111827" font-family="Arial">RLM</text>
</svg>