<svg xmlns="http://www.w3.org/2000/svg" width="1400" height="620" viewBox="0 0 1400 620">
<rect x="0" y="0" width="1400" height="620" fill="white"/>
<text x="700.0" y="34" text-anchor="middle" font-size="24" fill="#111827" font-family="Arial">Gemini Archival Average Wall Time by Benchmark</text>
<text x="700.0" y="602" text-anchor="middle" font-size="14" fill="#111827" font-family="Arial">Benchmark</text>
<text x="22" y="255.0" text-anchor="middle" font-size="14" fill="#111827" font-family="Arial" transform="rotate(-90 22 255.0)">Seconds</text>
<line x1="90" y1="440.0" x2="1360" y2="440.0" stroke="#d1d5db" stroke-width="1"/>
<text x="80" y="444.0" text-anchor="end" font-size="12" fill="#111827" font-family="Arial">0</text>
<line x1="90" y1="366.0" x2="1360" y2="366.0" stroke="#d1d5db" stroke-width="1"/>
<text x="80" y="370.0" text-anchor="end" font-size="12" fill="#111827" font-family="Arial">30</text>
<line x1="90" y1="292.0" x2="1360" y2="292.0" stroke="#d1d5db" stroke-width="1"/>
<text x="80" y="296.0" text-anchor="end" font-size="12" fill="#111827" font-family="Arial">59</text>
<line x1="90" y1="218.0" x2="1360" y2="218.0" stroke="#d1d5db" stroke-width="1"/>
<text x="80" y="222.0" text-anchor="end" font-size="12" fill="#111827" font-family="Arial">89</text>
<line x1="90" y1="144.0" x2="1360" y2="144.0" stroke="#d1d5db" stroke-width="1"/>
<text x="80" y="148.0" text-anchor="end" font-size="12" fill="#111827" font-family="Arial">119</text>
<line x1="90" y1="70.0" x2="1360" y2="70.0" stroke="#d1d5db" stroke-width="1"/>
<text x="80" y="74.0" text-anchor="end" font-size="12" fill="#111827" font-family="Arial">148</text>
<line x1="90" y1="70" x2="90" y2="440" stroke="#111827" stroke-width="1.5"/>
<line x1="90" y1="440" x2="1360" y2="440" stroke="#111827" stroke-width="1.5"/>
<rect x="123.91428571428571" y="437.3292785679159" width="50.800000000000004" height="2.6707214320841413" fill="#2563eb" rx="2"/>
<rect x="186.71428571428572" y="417.5010439356949" width="50.800000000000004" height="22.498956064305087" fill="#dc2626" rx="2"/>
<text x="149.31428571428572" y="431.3292785679159" text-anchor="middle" font-size="10" fill="#2563eb" font-family="Arial">1.1</text>
<text x="212.11428571428573" y="411.5010439356949" text-anchor="middle" font-size="10" fill="#dc2626" font-family="Arial">9.0</text>
<text x="180.71428571428572" y="458" text-anchor="end" font-size="11" fill="#111827" font-family="Arial" transform="rotate(-35 180.71428571428572 458)">Battle of the Bastards</text>
<rect x="305.34285714285716" y="436.76767826677667" width="50.800000000000004" height="3.2323217332233294" fill="#2563eb" rx="2"/>
<rect x="368.14285714285717" y="406.16420585669846" width="50.800000000000004" height="33.83579414330151" fill="#dc2626" rx="2"/>
<text x="330.74285714285713" y="430.76767826677667" text-anchor="middle" font-size="10" fill="#2563eb" font-family="Arial">1.3</text>
<text x="393.54285714285714" y="400.16420585669846" text-anchor="middle" font-size="10" fill="#dc2626" font-family="Arial">13.6</text>
<text x="362.14285714285717" y="458" text-anchor="end" font-size="11" fill="#111827" font-family="Arial" transform="rotate(-35 362.14285714285717 458)">AuthProxy Long Context</text>
<rect x="486.77142857142854" y="435.1178213820967" width="50.800000000000004" height="4.882178617903345" fill="#2563eb" rx="2"/>
<rect x="549.5714285714286" y="401.2945072454871" width="50.800000000000004" height="38.70549275451287" fill="#dc2626" rx="2"/>
<text x="512.1714285714286" y="429.1178213820967" text-anchor="middle" font-size="10" fill="#2563eb" font-family="Arial">2.0</text>
<text x="574.9714285714285" y="395.2945072454871" text-anchor="middle" font-size="10" fill="#dc2626" font-family="Arial">15.5</text>
<text x="543.5714285714286" y="458" text-anchor="end" font-size="11" fill="#111827" font-family="Arial" transform="rotate(-35 543.5714285714286 458)">Clinical Long Context</text>
<rect x="668.1999999999999" y="419.9995412754297" width="50.800000000000004" height="20.0004587245703" fill="#2563eb" rx="2"/>
<rect x="730.9999999999999" y="388.40515633400815" width="50.800000000000004" height="51.594843665991846" fill="#dc2626" rx="2"/>
<text x="693.5999999999999" y="413.9995412754297" text-anchor="middle" font-size="10" fill="#2563eb" font-family="Arial">8.0</text>
<text x="756.3999999999999" y="382.40515633400815" text-anchor="middle" font-size="10" fill="#dc2626" font-family="Arial">20.7</text>
<text x="724.9999999999999" y="458" text-anchor="end" font-size="11" fill="#111827" font-family="Arial" transform="rotate(-35 724.9999999999999 458)">Launch Note App</text>
<rect x="849.6285714285714" y="349.1904793064624" width="50.800000000000004" height="90.80952069353758" fill="#2563eb" rx="2"/>
<rect x="912.4285714285713" y="103.63636363636363" width="50.800000000000004" height="336.3636363636364" fill="#dc2626" rx="2"/>
<text x="875.0285714285714" y="343.1904793064624" text-anchor="middle" font-size="10" fill="#2563eb" font-family="Arial">36.4</text>
<text x="937.8285714285713" y="97.63636363636363" text-anchor="middle" font-size="10" fill="#dc2626" font-family="Arial">134.8</text>
<text x="906.4285714285713" y="458" text-anchor="end" font-size="11" fill="#111827" font-family="Arial" transform="rotate(-35 906.4285714285713 458)">PDF Cersei Warning</text>
<rect x="1031.057142857143" y="252.76557960186759" width="50.800000000000004" height="187.23442039813241" fill="#2563eb" rx="2"/>
<rect x="1093.857142857143" y="401.3419312709167" width="50.800000000000004" height="38.65806872908334" fill="#dc2626" rx="2"/>
<text x="1056.457142857143" y="246.76557960186759" text-anchor="middle" font-size="10" fill="#2563eb" font-family="Arial">75.0</text>
<text x="1119.257142857143" y="395.3419312709167" text-anchor="middle" font-size="10" fill="#dc2626" font-family="Arial">15.5</text>
<text x="1087.857142857143" y="458" text-anchor="end" font-size="11" fill="#111827" font-family="Arial" transform="rotate(-35 1087.857142857143 458)">Under-specified TSP</text>
<rect x="1212.4857142857143" y="253.9655322453016" width="50.800000000000004" height="186.0344677546984" fill="#2563eb" rx="2"/>
<rect x="1275.2857142857142" y="233.73668939826806" width="50.800000000000004" height="206.26331060173194" fill="#dc2626" rx="2"/>
<text x="1237.8857142857144" y="247.9655322453016" text-anchor="middle" font-size="10" fill="#2563eb" font-family="Arial">74.5</text>
<text x="1300.6857142857143" y="227.73668939826806" text-anchor="middle" font-size="10" fill="#dc2626" font-family="Arial">82.6</text>
<text x="1269.2857142857142" y="458" text-anchor="end" font-size="11" fill="#111827" font-family="Arial" transform="rotate(-35 1269.2857142857142 458)">Stochastic Adaptive TSP</text>
<rect x="1200" y="50" width="14" height="14" fill="#2563eb"/>
<text x="1222" y="62" font-size="12" fill="#111827" font-family="Arial">LLM</text>
<rect x="1280" y="50" width="14" height="14" fill="#dc2626"/>
<text x="1302" y="62" font-size="12" fill="#111827" font-family="Arial">RLM</text>
</svg>