<svg xmlns="http://www.w3.org/2000/svg" width="1400" height="620" viewBox="0 0 1400 620">
<rect x="0" y="0" width="1400" height="620" fill="white"/>
<text x="700.0" y="34" text-anchor="middle" font-size="24" fill="#111827" font-family="Arial">Average Total Tokens by Benchmark</text>
<text x="700.0" y="602" text-anchor="middle" font-size="14" fill="#111827" font-family="Arial">Benchmark</text>
<text x="22" y="255.0" text-anchor="middle" font-size="14" fill="#111827" font-family="Arial" transform="rotate(-90 22 255.0)">Tokens</text>
<line x1="90" y1="440.0" x2="1360" y2="440.0" stroke="#d1d5db" stroke-width="1"/>
<text x="80" y="444.0" text-anchor="end" font-size="12" fill="#111827" font-family="Arial">0</text>
<line x1="90" y1="366.0" x2="1360" y2="366.0" stroke="#d1d5db" stroke-width="1"/>
<text x="80" y="370.0" text-anchor="end" font-size="12" fill="#111827" font-family="Arial">5394</text>
<line x1="90" y1="292.0" x2="1360" y2="292.0" stroke="#d1d5db" stroke-width="1"/>
<text x="80" y="296.0" text-anchor="end" font-size="12" fill="#111827" font-family="Arial">10787</text>
<line x1="90" y1="218.0" x2="1360" y2="218.0" stroke="#d1d5db" stroke-width="1"/>
<text x="80" y="222.0" text-anchor="end" font-size="12" fill="#111827" font-family="Arial">16181</text>
<line x1="90" y1="144.0" x2="1360" y2="144.0" stroke="#d1d5db" stroke-width="1"/>
<text x="80" y="148.0" text-anchor="end" font-size="12" fill="#111827" font-family="Arial">21574</text>
<line x1="90" y1="70.0" x2="1360" y2="70.0" stroke="#d1d5db" stroke-width="1"/>
<text x="80" y="74.0" text-anchor="end" font-size="12" fill="#111827" font-family="Arial">26968</text>
<line x1="90" y1="70" x2="90" y2="440" stroke="#111827" stroke-width="1.5"/>
<line x1="90" y1="440" x2="1360" y2="440" stroke="#111827" stroke-width="1.5"/>
<rect x="123.91428571428571" y="435.71388947806366" width="50.800000000000004" height="4.286110521936336" fill="#2563eb" rx="2"/>
<rect x="186.71428571428572" y="275.4923828353859" width="50.800000000000004" height="164.5076171646141" fill="#dc2626" rx="2"/>
<text x="149.31428571428572" y="429.71388947806366" text-anchor="middle" font-size="10" fill="#2563eb" font-family="Arial">312.4</text>
<text x="212.11428571428573" y="269.4923828353859" text-anchor="middle" font-size="10" fill="#dc2626" font-family="Arial">11990.4</text>
<text x="180.71428571428572" y="458" text-anchor="end" font-size="11" fill="#111827" font-family="Arial" transform="rotate(-35 180.71428571428572 458)">Battle of the Bastards</text>
<rect x="305.34285714285716" y="422.833606001771" width="50.800000000000004" height="17.16639399822901" fill="#2563eb" rx="2"/>
<rect x="368.14285714285717" y="251.65535203893205" width="50.800000000000004" height="188.34464796106795" fill="#dc2626" rx="2"/>
<text x="330.74285714285713" y="416.833606001771" text-anchor="middle" font-size="10" fill="#2563eb" font-family="Arial">1251.2</text>
<text x="393.54285714285714" y="245.65535203893205" text-anchor="middle" font-size="10" fill="#dc2626" font-family="Arial">13727.8</text>
<text x="362.14285714285717" y="458" text-anchor="end" font-size="11" fill="#111827" font-family="Arial" transform="rotate(-35 362.14285714285717 458)">AuthProxy Long Context</text>
<rect x="486.77142857142854" y="399.5755568443239" width="50.800000000000004" height="40.42444315567612" fill="#2563eb" rx="2"/>
<rect x="549.5714285714286" y="289.0147596933259" width="50.800000000000004" height="150.9852403066741" fill="#dc2626" rx="2"/>
<text x="512.1714285714286" y="393.5755568443239" text-anchor="middle" font-size="10" fill="#2563eb" font-family="Arial">2946.4</text>
<text x="574.9714285714285" y="283.0147596933259" text-anchor="middle" font-size="10" fill="#dc2626" font-family="Arial">11004.8</text>
<text x="543.5714285714286" y="458" text-anchor="end" font-size="11" fill="#111827" font-family="Arial" transform="rotate(-35 543.5714285714286 458)">Clinical Long Context</text>
<rect x="668.1999999999999" y="418.58865531199154" width="50.800000000000004" height="21.411344688008466" fill="#2563eb" rx="2"/>
<rect x="730.9999999999999" y="285.9881400353901" width="50.800000000000004" height="154.01185996460993" fill="#dc2626" rx="2"/>
<text x="693.5999999999999" y="412.58865531199154" text-anchor="middle" font-size="10" fill="#2563eb" font-family="Arial">1560.6</text>
<text x="756.3999999999999" y="279.9881400353901" text-anchor="middle" font-size="10" fill="#dc2626" font-family="Arial">11225.4</text>
<text x="724.9999999999999" y="458" text-anchor="end" font-size="11" fill="#111827" font-family="Arial" transform="rotate(-35 724.9999999999999 458)">Launch Note App</text>
<rect x="849.6285714285714" y="375.241864073177" width="50.800000000000004" height="64.758135926823" fill="#2563eb" rx="2"/>
<rect x="912.4285714285713" y="190.50624739506472" width="50.800000000000004" height="249.49375260493528" fill="#dc2626" rx="2"/>
<text x="875.0285714285714" y="369.241864073177" text-anchor="middle" font-size="10" fill="#2563eb" font-family="Arial">4720.0</text>
<text x="937.8285714285713" y="184.50624739506472" text-anchor="middle" font-size="10" fill="#dc2626" font-family="Arial">18184.8</text>
<text x="906.4285714285713" y="458" text-anchor="end" font-size="11" fill="#111827" font-family="Arial" transform="rotate(-35 906.4285714285713 458)">PDF Cersei Warning</text>
<rect x="1031.057142857143" y="421.3847799098488" width="50.800000000000004" height="18.615220090151155" fill="#2563eb" rx="2"/>
<rect x="1093.857142857143" y="103.63636363636368" width="50.800000000000004" height="336.3636363636363" fill="#dc2626" rx="2"/>
<text x="1056.457142857143" y="415.3847799098488" text-anchor="middle" font-size="10" fill="#2563eb" font-family="Arial">1356.8</text>
<text x="1119.257142857143" y="97.63636363636368" text-anchor="middle" font-size="10" fill="#dc2626" font-family="Arial">24516.4</text>
<text x="1087.857142857143" y="458" text-anchor="end" font-size="11" fill="#111827" font-family="Arial" transform="rotate(-35 1087.857142857143 458)">Under-specified TSP</text>
<rect x="1212.4857142857143" y="419.48045167539055" width="50.800000000000004" height="20.51954832460942" fill="#2563eb" rx="2"/>
<rect x="1275.2857142857142" y="160.91164207706606" width="50.800000000000004" height="279.08835792293394" fill="#dc2626" rx="2"/>
<text x="1237.8857142857144" y="413.48045167539055" text-anchor="middle" font-size="10" fill="#2563eb" font-family="Arial">1495.6</text>
<text x="1300.6857142857143" y="154.91164207706606" text-anchor="middle" font-size="10" fill="#dc2626" font-family="Arial">20341.8</text>
<text x="1269.2857142857142" y="458" text-anchor="end" font-size="11" fill="#111827" font-family="Arial" transform="rotate(-35 1269.2857142857142 458)">Stochastic Adaptive TSP</text>
<rect x="1200" y="50" width="14" height="14" fill="#2563eb"/>
<text x="1222" y="62" font-size="12" fill="#111827" font-family="Arial">LLM</text>
<rect x="1280" y="50" width="14" height="14" fill="#dc2626"/>
<text x="1302" y="62" font-size="12" fill="#111827" font-family="Arial">RLM</text>
</svg>