<svg xmlns="http://www.w3.org/2000/svg" width="1700" height="700" viewBox="0 0 1700 700">
<rect x="0" y="0" width="1700" height="700" fill="white"/>
<text x="850.0" y="34" text-anchor="middle" font-size="24" fill="#111827" font-family="Arial">Per-Run Wall Time</text>
<text x="850.0" y="682" text-anchor="middle" font-size="14" fill="#111827" font-family="Arial">Benchmark Run</text>
<text x="22" y="275.0" text-anchor="middle" font-size="14" fill="#111827" font-family="Arial" transform="rotate(-90 22 275.0)">Seconds</text>
<line x1="90" y1="480.0" x2="1660" y2="480.0" stroke="#d1d5db" stroke-width="1"/>
<text x="80" y="484.0" text-anchor="end" font-size="12" fill="#111827" font-family="Arial">0</text>
<line x1="90" y1="398.0" x2="1660" y2="398.0" stroke="#d1d5db" stroke-width="1"/>
<text x="80" y="402.0" text-anchor="end" font-size="12" fill="#111827" font-family="Arial">192</text>
<line x1="90" y1="316.0" x2="1660" y2="316.0" stroke="#d1d5db" stroke-width="1"/>
<text x="80" y="320.0" text-anchor="end" font-size="12" fill="#111827" font-family="Arial">384</text>
<line x1="90" y1="234.0" x2="1660" y2="234.0" stroke="#d1d5db" stroke-width="1"/>
<text x="80" y="238.0" text-anchor="end" font-size="12" fill="#111827" font-family="Arial">576</text>
<line x1="90" y1="152.0" x2="1660" y2="152.0" stroke="#d1d5db" stroke-width="1"/>
<text x="80" y="156.0" text-anchor="end" font-size="12" fill="#111827" font-family="Arial">768</text>
<line x1="90" y1="70.0" x2="1660" y2="70.0" stroke="#d1d5db" stroke-width="1"/>
<text x="80" y="74.0" text-anchor="end" font-size="12" fill="#111827" font-family="Arial">961</text>
<line x1="90" y1="70" x2="90" y2="480" stroke="#111827" stroke-width="1.5"/>
<line x1="90" y1="480" x2="1660" y2="480" stroke="#111827" stroke-width="1.5"/>
<path d="M 90.00 475.51 L 136.18 476.91 L 182.35 475.52 L 228.53 477.50 L 274.71 476.74 L 320.88 467.01 L 367.06 469.10 L 413.24 470.89 L 459.41 471.06 L 505.59 473.75 L 551.76 405.87 L 597.94 421.50 L 644.12 449.45 L 690.29 418.23 L 736.47 429.92 L 782.65 434.20 L 828.82 417.39 L 875.00 438.31 L 921.18 425.71 L 967.35 438.39 L 1013.53 429.16 L 1059.71 452.47 L 1105.88 439.75 L 1152.06 447.57 L 1198.24 439.48 L 1244.41 448.48 L 1290.59 435.03 L 1336.76 435.76 L 1382.94 434.39 L 1429.12 440.21 L 1475.29 438.81 L 1521.47 454.48 L 1567.65 453.11 L 1613.82 427.01 L 1660.00 449.13" fill="none" stroke="#2563eb" stroke-width="3"/>
<path d="M 90.00 421.04 L 136.18 430.13 L 182.35 433.36 L 228.53 448.50 L 274.71 387.08 L 320.88 345.01 L 367.06 440.99 L 413.24 407.00 L 459.41 435.17 L 505.59 424.07 L 551.76 457.77 L 597.94 458.08 L 644.12 443.75 L 690.29 455.08 L 736.47 461.71 L 782.65 463.85 L 828.82 259.42 L 875.00 361.84 L 921.18 424.66 L 967.35 413.59 L 1059.71 355.65 L 1105.88 393.33 L 1152.06 461.71 L 1198.24 391.79 L 1244.41 233.02 L 1290.59 221.90 L 1336.76 269.80 L 1382.94 298.18 L 1429.12 270.55 L 1475.29 107.27 L 1521.47 414.77 L 1567.65 273.60 L 1613.82 355.34 L 1660.00 390.61" fill="none" stroke="#dc2626" stroke-width="3"/>
<text x="90.0" y="498" text-anchor="end" font-size="10" fill="#111827" font-family="Arial" transform="rotate(-45 90.0 498)">got-r001</text>
<circle cx="90.0" cy="475.5132593455025" r="4" fill="#2563eb"/>
<circle cx="90.0" cy="421.03939618801104" r="4" fill="#dc2626"/>
<text x="136.1764705882353" y="498" text-anchor="end" font-size="10" fill="#111827" font-family="Arial" transform="rotate(-45 136.1764705882353 498)">got-r002</text>
<circle cx="136.1764705882353" cy="476.9068293832626" r="4" fill="#2563eb"/>
<circle cx="136.1764705882353" cy="430.1264118400517" r="4" fill="#dc2626"/>
<text x="182.3529411764706" y="498" text-anchor="end" font-size="10" fill="#111827" font-family="Arial" transform="rotate(-45 182.3529411764706 498)">got-r003</text>
<circle cx="182.3529411764706" cy="475.5171007330492" r="4" fill="#2563eb"/>
<circle cx="182.3529411764706" cy="433.36427472104657" r="4" fill="#dc2626"/>
<text x="228.52941176470588" y="498" text-anchor="end" font-size="10" fill="#111827" font-family="Arial" transform="rotate(-45 228.52941176470588 498)">got-r004</text>
<circle cx="228.52941176470588" cy="477.4971226029325" r="4" fill="#2563eb"/>
<circle cx="228.52941176470588" cy="448.4989148340437" r="4" fill="#dc2626"/>
<text x="274.7058823529412" y="498" text-anchor="end" font-size="10" fill="#111827" font-family="Arial" transform="rotate(-45 274.7058823529412 498)">got-r005</text>
<circle cx="274.7058823529412" cy="476.74293018127184" r="4" fill="#2563eb"/>
<circle cx="274.7058823529412" cy="387.07982299219316" r="4" fill="#dc2626"/>
<text x="320.88235294117646" y="498" text-anchor="end" font-size="10" fill="#111827" font-family="Arial" transform="rotate(-45 320.88235294117646 498)">authproxy-r001</text>
<circle cx="320.88235294117646" cy="467.0135491672621" r="4" fill="#2563eb"/>
<circle cx="320.88235294117646" cy="345.00937340202444" r="4" fill="#dc2626"/>
<text x="367.05882352941177" y="498" text-anchor="end" font-size="10" fill="#111827" font-family="Arial" transform="rotate(-45 367.05882352941177 498)">authproxy-r002</text>
<circle cx="367.05882352941177" cy="469.09686168006675" r="4" fill="#2563eb"/>
<circle cx="367.05882352941177" cy="440.9894290011643" r="4" fill="#dc2626"/>
<text x="413.2352941176471" y="498" text-anchor="end" font-size="10" fill="#111827" font-family="Arial" transform="rotate(-45 413.2352941176471 498)">authproxy-r003</text>
<circle cx="413.2352941176471" cy="470.8907896643564" r="4" fill="#2563eb"/>
<circle cx="413.2352941176471" cy="407.00467337587384" r="4" fill="#dc2626"/>
<text x="459.4117647058824" y="498" text-anchor="end" font-size="10" fill="#111827" font-family="Arial" transform="rotate(-45 459.4117647058824 498)">authproxy-r004</text>
<circle cx="459.4117647058824" cy="471.0623716414405" r="4" fill="#2563eb"/>
<circle cx="459.4117647058824" cy="435.16930004713765" r="4" fill="#dc2626"/>
<text x="505.5882352941177" y="498" text-anchor="end" font-size="10" fill="#111827" font-family="Arial" transform="rotate(-45 505.5882352941177 498)">authproxy-r005</text>
<circle cx="505.5882352941177" cy="473.7457942532009" r="4" fill="#2563eb"/>
<circle cx="505.5882352941177" cy="424.07366552903295" r="4" fill="#dc2626"/>
<text x="551.7647058823529" y="498" text-anchor="end" font-size="10" fill="#111827" font-family="Arial" transform="rotate(-45 551.7647058823529 498)">clinical-r001</text>
<circle cx="551.7647058823529" cy="405.8706104079325" r="4" fill="#2563eb"/>
<circle cx="551.7647058823529" cy="457.7660488799388" r="4" fill="#dc2626"/>
<text x="597.9411764705883" y="498" text-anchor="end" font-size="10" fill="#111827" font-family="Arial" transform="rotate(-45 597.9411764705883 498)">clinical-r002</text>
<circle cx="597.9411764705883" cy="421.50206997696415" r="4" fill="#2563eb"/>
<circle cx="597.9411764705883" cy="458.0750671670256" r="4" fill="#dc2626"/>
<text x="644.1176470588235" y="498" text-anchor="end" font-size="10" fill="#111827" font-family="Arial" transform="rotate(-45 644.1176470588235 498)">clinical-r003</text>
<circle cx="644.1176470588235" cy="449.44987166226105" r="4" fill="#2563eb"/>
<circle cx="644.1176470588235" cy="443.7496793638579" r="4" fill="#dc2626"/>
<text x="690.2941176470589" y="498" text-anchor="end" font-size="10" fill="#111827" font-family="Arial" transform="rotate(-45 690.2941176470589 498)">clinical-r004</text>
<circle cx="690.2941176470589" cy="418.2313418914035" r="4" fill="#2563eb"/>
<circle cx="690.2941176470589" cy="455.08091898482434" r="4" fill="#dc2626"/>
<text x="736.4705882352941" y="498" text-anchor="end" font-size="10" fill="#111827" font-family="Arial" transform="rotate(-45 736.4705882352941 498)">clinical-r005</text>
<circle cx="736.4705882352941" cy="429.91983055420917" r="4" fill="#2563eb"/>
<circle cx="736.4705882352941" cy="461.7111538903574" r="4" fill="#dc2626"/>
<text x="782.6470588235295" y="498" text-anchor="end" font-size="10" fill="#111827" font-family="Arial" transform="rotate(-45 782.6470588235295 498)">launch_note_app-r001</text>
<circle cx="782.6470588235295" cy="434.2021240270567" r="4" fill="#2563eb"/>
<circle cx="782.6470588235295" cy="463.85208721636195" r="4" fill="#dc2626"/>
<text x="828.8235294117648" y="498" text-anchor="end" font-size="10" fill="#111827" font-family="Arial" transform="rotate(-45 828.8235294117648 498)">launch_note_app-r002</text>
<circle cx="828.8235294117648" cy="417.39434622707034" r="4" fill="#2563eb"/>
<circle cx="828.8235294117648" cy="259.4219783999507" r="4" fill="#dc2626"/>
<text x="875.0" y="498" text-anchor="end" font-size="10" fill="#111827" font-family="Arial" transform="rotate(-45 875.0 498)">launch_note_app-r003</text>
<circle cx="875.0" cy="438.31283552282014" r="4" fill="#2563eb"/>
<circle cx="875.0" cy="361.8397727064522" r="4" fill="#dc2626"/>
<text x="921.1764705882354" y="498" text-anchor="end" font-size="10" fill="#111827" font-family="Arial" transform="rotate(-45 921.1764705882354 498)">launch_note_app-r004</text>
<circle cx="921.1764705882354" cy="425.71265754894074" r="4" fill="#2563eb"/>
<circle cx="921.1764705882354" cy="424.6596905403177" r="4" fill="#dc2626"/>
<text x="967.3529411764706" y="498" text-anchor="end" font-size="10" fill="#111827" font-family="Arial" transform="rotate(-45 967.3529411764706 498)">launch_note_app-r005</text>
<circle cx="967.3529411764706" cy="438.39222419878445" r="4" fill="#2563eb"/>
<circle cx="967.3529411764706" cy="413.58795798917" r="4" fill="#dc2626"/>
<text x="1013.529411764706" y="498" text-anchor="end" font-size="10" fill="#111827" font-family="Arial" transform="rotate(-45 1013.529411764706 498)">pdf_cersei_warning-r001</text>
<circle cx="1013.529411764706" cy="429.1613699241633" r="4" fill="#2563eb"/>
<text x="1059.7058823529412" y="498" text-anchor="end" font-size="10" fill="#111827" font-family="Arial" transform="rotate(-45 1059.7058823529412 498)">pdf_cersei_warning-r002</text>
<circle cx="1059.7058823529412" cy="452.4674949905808" r="4" fill="#2563eb"/>
<circle cx="1059.7058823529412" cy="355.64574869788413" r="4" fill="#dc2626"/>
<text x="1105.8823529411766" y="498" text-anchor="end" font-size="10" fill="#111827" font-family="Arial" transform="rotate(-45 1105.8823529411766 498)">pdf_cersei_warning-r003</text>
<circle cx="1105.8823529411766" cy="439.7542094944942" r="4" fill="#2563eb"/>
<circle cx="1105.8823529411766" cy="393.3271996055759" r="4" fill="#dc2626"/>
<text x="1152.058823529412" y="498" text-anchor="end" font-size="10" fill="#111827" font-family="Arial" transform="rotate(-45 1152.058823529412 498)">pdf_cersei_warning-r004</text>
<circle cx="1152.058823529412" cy="447.574847718653" r="4" fill="#2563eb"/>
<circle cx="1152.058823529412" cy="461.70901978616484" r="4" fill="#dc2626"/>
<text x="1198.235294117647" y="498" text-anchor="end" font-size="10" fill="#111827" font-family="Arial" transform="rotate(-45 1198.235294117647 498)">pdf_cersei_warning-r005</text>
<circle cx="1198.235294117647" cy="439.48403190371255" r="4" fill="#2563eb"/>
<circle cx="1198.235294117647" cy="391.79149822858943" r="4" fill="#dc2626"/>
<text x="1244.4117647058824" y="498" text-anchor="end" font-size="10" fill="#111827" font-family="Arial" transform="rotate(-45 1244.4117647058824 498)">tsp_branch_bound-r001</text>
<circle cx="1244.4117647058824" cy="448.48312246301856" r="4" fill="#2563eb"/>
<circle cx="1244.4117647058824" cy="233.02182907511883" r="4" fill="#dc2626"/>
<text x="1290.5882352941178" y="498" text-anchor="end" font-size="10" fill="#111827" font-family="Arial" transform="rotate(-45 1290.5882352941178 498)">tsp_branch_bound-r002</text>
<circle cx="1290.5882352941178" cy="435.0271687079113" r="4" fill="#2563eb"/>
<circle cx="1290.5882352941178" cy="221.90143894838008" r="4" fill="#dc2626"/>
<text x="1336.764705882353" y="498" text-anchor="end" font-size="10" fill="#111827" font-family="Arial" transform="rotate(-45 1336.764705882353 498)">tsp_branch_bound-r003</text>
<circle cx="1336.764705882353" cy="435.7600200876461" r="4" fill="#2563eb"/>
<circle cx="1336.764705882353" cy="269.8026880135384" r="4" fill="#dc2626"/>
<text x="1382.9411764705883" y="498" text-anchor="end" font-size="10" fill="#111827" font-family="Arial" transform="rotate(-45 1382.9411764705883 498)">tsp_branch_bound-r004</text>
<circle cx="1382.9411764705883" cy="434.39205930019705" r="4" fill="#2563eb"/>
<circle cx="1382.9411764705883" cy="298.18029828322244" r="4" fill="#dc2626"/>
<text x="1429.1176470588236" y="498" text-anchor="end" font-size="10" fill="#111827" font-family="Arial" transform="rotate(-45 1429.1176470588236 498)">tsp_branch_bound-r005</text>
<circle cx="1429.1176470588236" cy="440.21005415003106" r="4" fill="#2563eb"/>
<circle cx="1429.1176470588236" cy="270.5496244809442" r="4" fill="#dc2626"/>
<text x="1475.294117647059" y="498" text-anchor="end" font-size="10" fill="#111827" font-family="Arial" transform="rotate(-45 1475.294117647059 498)">stochastic_tsp-r001</text>
<circle cx="1475.294117647059" cy="438.8053867704695" r="4" fill="#2563eb"/>
<circle cx="1475.294117647059" cy="107.27272727272731" r="4" fill="#dc2626"/>
<text x="1521.4705882352941" y="498" text-anchor="end" font-size="10" fill="#111827" font-family="Arial" transform="rotate(-45 1521.4705882352941 498)">stochastic_tsp-r002</text>
<circle cx="1521.4705882352941" cy="454.4846502734152" r="4" fill="#2563eb"/>
<circle cx="1521.4705882352941" cy="414.77238581605644" r="4" fill="#dc2626"/>
<text x="1567.6470588235295" y="498" text-anchor="end" font-size="10" fill="#111827" font-family="Arial" transform="rotate(-45 1567.6470588235295 498)">stochastic_tsp-r003</text>
<circle cx="1567.6470588235295" cy="453.10772624835727" r="4" fill="#2563eb"/>
<circle cx="1567.6470588235295" cy="273.60224711802243" r="4" fill="#dc2626"/>
<text x="1613.8235294117649" y="498" text-anchor="end" font-size="10" fill="#111827" font-family="Arial" transform="rotate(-45 1613.8235294117649 498)">stochastic_tsp-r004</text>
<circle cx="1613.8235294117649" cy="427.0089124355188" r="4" fill="#2563eb"/>
<circle cx="1613.8235294117649" cy="355.3358767691203" r="4" fill="#dc2626"/>
<text x="1660.0" y="498" text-anchor="end" font-size="10" fill="#111827" font-family="Arial" transform="rotate(-45 1660.0 498)">stochastic_tsp-r005</text>
<circle cx="1660.0" cy="449.1293292125343" r="4" fill="#2563eb"/>
<circle cx="1660.0" cy="390.61347271428076" r="4" fill="#dc2626"/>
<rect x="1500" y="50" width="14" height="14" fill="#2563eb"/>
<text x="1522" y="62" font-size="12" fill="#111827" font-family="Arial">LLM</text>
<rect x="1580" y="50" width="14" height="14" fill="#dc2626"/>
<text x="1602" y="62" font-size="12" fill="#111827" font-family="Arial">RLM</text>
</svg>