<svg xmlns="http://www.w3.org/2000/svg" width="1700" height="700" viewBox="0 0 1700 700">
<rect x="0" y="0" width="1700" height="700" fill="white"/>
<text x="850.0" y="34" text-anchor="middle" font-size="24" fill="#111827" font-family="Arial">Per-Run Total Tokens</text>
<text x="850.0" y="682" text-anchor="middle" font-size="14" fill="#111827" font-family="Arial">Benchmark Run</text>
<text x="22" y="275.0" text-anchor="middle" font-size="14" fill="#111827" font-family="Arial" transform="rotate(-90 22 275.0)">Tokens</text>
<line x1="90" y1="480.0" x2="1660" y2="480.0" stroke="#d1d5db" stroke-width="1"/>
<text x="80" y="484.0" text-anchor="end" font-size="12" fill="#111827" font-family="Arial">0</text>
<line x1="90" y1="398.0" x2="1660" y2="398.0" stroke="#d1d5db" stroke-width="1"/>
<text x="80" y="402.0" text-anchor="end" font-size="12" fill="#111827" font-family="Arial">6430</text>
<line x1="90" y1="316.0" x2="1660" y2="316.0" stroke="#d1d5db" stroke-width="1"/>
<text x="80" y="320.0" text-anchor="end" font-size="12" fill="#111827" font-family="Arial">12859</text>
<line x1="90" y1="234.0" x2="1660" y2="234.0" stroke="#d1d5db" stroke-width="1"/>
<text x="80" y="238.0" text-anchor="end" font-size="12" fill="#111827" font-family="Arial">19289</text>
<line x1="90" y1="152.0" x2="1660" y2="152.0" stroke="#d1d5db" stroke-width="1"/>
<text x="80" y="156.0" text-anchor="end" font-size="12" fill="#111827" font-family="Arial">25719</text>
<line x1="90" y1="70.0" x2="1660" y2="70.0" stroke="#d1d5db" stroke-width="1"/>
<text x="80" y="74.0" text-anchor="end" font-size="12" fill="#111827" font-family="Arial">32149</text>
<line x1="90" y1="70" x2="90" y2="480" stroke="#111827" stroke-width="1.5"/>
<line x1="90" y1="480" x2="1660" y2="480" stroke="#111827" stroke-width="1.5"/>
<path d="M 90.00 476.03 L 136.18 476.01 L 182.35 476.07 L 228.53 475.93 L 274.71 476.03 L 320.88 463.78 L 367.06 463.75 L 413.24 464.20 L 459.41 464.29 L 505.59 464.20 L 551.76 439.01 L 597.94 438.85 L 644.12 449.55 L 690.29 439.65 L 736.47 445.07 L 782.65 459.00 L 828.82 455.49 L 875.00 464.62 L 921.18 457.73 L 967.35 463.65 L 1013.53 417.36 L 1059.71 420.07 L 1105.88 419.94 L 1152.06 422.33 L 1198.24 419.32 L 1244.41 466.10 L 1290.59 461.05 L 1336.76 464.25 L 1382.94 459.74 L 1429.12 462.35 L 1475.29 460.76 L 1521.47 465.00 L 1567.65 460.47 L 1613.82 454.84 L 1660.00 463.56" fill="none" stroke="#2563eb" stroke-width="3"/>
<path d="M 90.00 323.35 L 136.18 322.87 L 182.35 315.46 L 228.53 362.52 L 274.71 311.22 L 320.88 276.75 L 367.06 307.81 L 413.24 287.59 L 459.41 352.99 L 505.59 299.49 L 551.76 347.31 L 597.94 342.61 L 644.12 320.01 L 690.29 340.17 L 736.47 348.16 L 782.65 444.46 L 828.82 299.57 L 875.00 287.11 L 921.18 308.76 L 967.35 344.31 L 1059.71 176.94 L 1105.88 184.25 L 1152.06 441.04 L 1198.24 190.11 L 1244.41 166.55 L 1290.59 155.82 L 1336.76 118.32 L 1382.94 181.05 L 1429.12 214.94 L 1475.29 128.79 L 1521.47 295.47 L 1567.65 107.27 L 1613.82 235.53 L 1660.00 335.81" fill="none" stroke="#dc2626" stroke-width="3"/>
<text x="90.0" y="498" text-anchor="end" font-size="10" fill="#111827" font-family="Arial" transform="rotate(-45 90.0 498)">got-r001</text>
<circle cx="90.0" cy="476.0337308623082" r="4" fill="#2563eb"/>
<circle cx="90.0" cy="323.35149897662734" r="4" fill="#dc2626"/>
<text x="136.1764705882353" y="498" text-anchor="end" font-size="10" fill="#111827" font-family="Arial" transform="rotate(-45 136.1764705882353 498)">got-r002</text>
<circle cx="136.1764705882353" cy="476.008224308368" r="4" fill="#2563eb"/>
<circle cx="136.1764705882353" cy="322.8668744517646" r="4" fill="#dc2626"/>
<text x="182.3529411764706" y="498" text-anchor="end" font-size="10" fill="#111827" font-family="Arial" transform="rotate(-45 182.3529411764706 498)">got-r003</text>
<circle cx="182.3529411764706" cy="476.07199069321837" r="4" fill="#2563eb"/>
<circle cx="182.3529411764706" cy="315.4572205321538" r="4" fill="#dc2626"/>
<text x="228.52941176470588" y="498" text-anchor="end" font-size="10" fill="#111827" font-family="Arial" transform="rotate(-45 228.52941176470588 498)">got-r004</text>
<circle cx="228.52941176470588" cy="475.9317046465476" r="4" fill="#2563eb"/>
<circle cx="228.52941176470588" cy="362.516812551713" r="4" fill="#dc2626"/>
<text x="274.7058823529412" y="498" text-anchor="end" font-size="10" fill="#111827" font-family="Arial" transform="rotate(-45 274.7058823529412 498)">got-r005</text>
<circle cx="274.7058823529412" cy="476.0337308623082" r="4" fill="#2563eb"/>
<circle cx="274.7058823529412" cy="311.2231325780905" r="4" fill="#dc2626"/>
<text x="320.88235294117646" y="498" text-anchor="end" font-size="10" fill="#111827" font-family="Arial" transform="rotate(-45 320.88235294117646 498)">authproxy-r001</text>
<circle cx="320.88235294117646" cy="463.77783169407064" r="4" fill="#2563eb"/>
<circle cx="320.88235294117646" cy="276.75102492799067" r="4" fill="#dc2626"/>
<text x="367.05882352941177" y="498" text-anchor="end" font-size="10" fill="#111827" font-family="Arial" transform="rotate(-45 367.05882352941177 498)">authproxy-r002</text>
<circle cx="367.05882352941177" cy="463.7523251401305" r="4" fill="#2563eb"/>
<circle cx="367.05882352941177" cy="307.8052543501117" r="4" fill="#dc2626"/>
<text x="413.2352941176471" y="498" text-anchor="end" font-size="10" fill="#111827" font-family="Arial" transform="rotate(-45 413.2352941176471 498)">authproxy-r003</text>
<circle cx="413.2352941176471" cy="464.198689834083" r="4" fill="#2563eb"/>
<circle cx="413.2352941176471" cy="287.59131035255035" r="4" fill="#dc2626"/>
<text x="459.4117647058824" y="498" text-anchor="end" font-size="10" fill="#111827" font-family="Arial" transform="rotate(-45 459.4117647058824 498)">authproxy-r004</text>
<circle cx="459.4117647058824" cy="464.28796277287347" r="4" fill="#2563eb"/>
<circle cx="459.4117647058824" cy="352.99011465507056" r="4" fill="#dc2626"/>
<text x="505.5882352941177" y="498" text-anchor="end" font-size="10" fill="#111827" font-family="Arial" transform="rotate(-45 505.5882352941177 498)">authproxy-r005</text>
<circle cx="505.5882352941177" cy="464.198689834083" r="4" fill="#2563eb"/>
<circle cx="505.5882352941177" cy="299.4901177656259" r="4" fill="#dc2626"/>
<text x="551.7647058823529" y="498" text-anchor="end" font-size="10" fill="#111827" font-family="Arial" transform="rotate(-45 551.7647058823529 498)">clinical-r001</text>
<circle cx="551.7647058823529" cy="439.0109678181943" r="4" fill="#2563eb"/>
<circle cx="551.7647058823529" cy="347.3149064033893" r="4" fill="#dc2626"/>
<text x="597.9411764705883" y="498" text-anchor="end" font-size="10" fill="#111827" font-family="Arial" transform="rotate(-45 597.9411764705883 498)">clinical-r002</text>
<circle cx="597.9411764705883" cy="438.84517521758335" r="4" fill="#2563eb"/>
<circle cx="597.9411764705883" cy="342.60894720143335" r="4" fill="#dc2626"/>
<text x="644.1176470588235" y="498" text-anchor="end" font-size="10" fill="#111827" font-family="Arial" transform="rotate(-45 644.1176470588235 498)">clinical-r003</text>
<circle cx="644.1176470588235" cy="449.5451745954723" r="4" fill="#2563eb"/>
<circle cx="644.1176470588235" cy="320.0101404104689" r="4" fill="#dc2626"/>
<text x="690.2941176470589" y="498" text-anchor="end" font-size="10" fill="#111827" font-family="Arial" transform="rotate(-45 690.2941176470589 498)">clinical-r004</text>
<circle cx="690.2941176470589" cy="439.6486316666978" r="4" fill="#2563eb"/>
<circle cx="690.2941176470589" cy="340.1730713001499" r="4" fill="#dc2626"/>
<text x="736.4705882352941" y="498" text-anchor="end" font-size="10" fill="#111827" font-family="Arial" transform="rotate(-45 736.4705882352941 498)">clinical-r005</text>
<circle cx="736.4705882352941" cy="445.06877437897765" r="4" fill="#2563eb"/>
<circle cx="736.4705882352941" cy="348.1566226834139" r="4" fill="#dc2626"/>
<text x="782.6470588235295" y="498" text-anchor="end" font-size="10" fill="#111827" font-family="Arial" transform="rotate(-45 782.6470588235295 498)">launch_note_app-r001</text>
<circle cx="782.6470588235295" cy="458.99535283029434" r="4" fill="#2563eb"/>
<circle cx="782.6470588235295" cy="444.45661708441423" r="4" fill="#dc2626"/>
<text x="828.8235294117648" y="498" text-anchor="end" font-size="10" fill="#111827" font-family="Arial" transform="rotate(-45 828.8235294117648 498)">launch_note_app-r002</text>
<circle cx="828.8235294117648" cy="455.488201663525" r="4" fill="#2563eb"/>
<circle cx="828.8235294117648" cy="299.56663742744627" r="4" fill="#dc2626"/>
<text x="875.0" y="498" text-anchor="end" font-size="10" fill="#111827" font-family="Arial" transform="rotate(-45 875.0 498)">launch_note_app-r003</text>
<circle cx="875.0" cy="464.61954797409527" r="4" fill="#2563eb"/>
<circle cx="875.0" cy="287.10668582768767" r="4" fill="#dc2626"/>
<text x="921.1764705882354" y="498" text-anchor="end" font-size="10" fill="#111827" font-family="Arial" transform="rotate(-45 921.1764705882354 498)">launch_note_app-r004</text>
<circle cx="921.1764705882354" cy="457.73277841025737" r="4" fill="#2563eb"/>
<circle cx="921.1764705882354" cy="308.76175012286694" r="4" fill="#dc2626"/>
<text x="967.3529411764706" y="498" text-anchor="end" font-size="10" fill="#111827" font-family="Arial" transform="rotate(-45 967.3529411764706 498)">launch_note_app-r005</text>
<circle cx="967.3529411764706" cy="463.65029892436996" r="4" fill="#2563eb"/>
<circle cx="967.3529411764706" cy="344.3051330384527" r="4" fill="#dc2626"/>
<text x="1013.529411764706" y="498" text-anchor="end" font-size="10" fill="#111827" font-family="Arial" transform="rotate(-45 1013.529411764706 498)">pdf_cersei_warning-r001</text>
<circle cx="1013.529411764706" cy="417.355903523015" r="4" fill="#2563eb"/>
<text x="1059.7058823529412" y="498" text-anchor="end" font-size="10" fill="#111827" font-family="Arial" transform="rotate(-45 1059.7058823529412 498)">pdf_cersei_warning-r002</text>
<circle cx="1059.7058823529412" cy="420.07235151763996" r="4" fill="#2563eb"/>
<circle cx="1059.7058823529412" cy="176.943879360221" r="4" fill="#dc2626"/>
<text x="1105.8823529411766" y="498" text-anchor="end" font-size="10" fill="#111827" font-family="Arial" transform="rotate(-45 1105.8823529411766 498)">pdf_cersei_warning-r003</text>
<circle cx="1105.8823529411766" cy="419.9448187479393" r="4" fill="#2563eb"/>
<circle cx="1105.8823529411766" cy="184.25150706407123" r="4" fill="#dc2626"/>
<text x="1152.058823529412" y="498" text-anchor="end" font-size="10" fill="#111827" font-family="Arial" transform="rotate(-45 1152.058823529412 498)">pdf_cersei_warning-r004</text>
<circle cx="1152.058823529412" cy="422.3296815413424" r="4" fill="#2563eb"/>
<circle cx="1152.058823529412" cy="441.03873885643543" r="4" fill="#dc2626"/>
<text x="1198.235294117647" y="498" text-anchor="end" font-size="10" fill="#111827" font-family="Arial" transform="rotate(-45 1198.235294117647 498)">pdf_cersei_warning-r005</text>
<circle cx="1198.235294117647" cy="419.3199081764058" r="4" fill="#2563eb"/>
<circle cx="1198.235294117647" cy="190.1052611933335" r="4" fill="#dc2626"/>
<text x="1244.4117647058824" y="498" text-anchor="end" font-size="10" fill="#111827" font-family="Arial" transform="rotate(-45 1244.4117647058824 498)">tsp_branch_bound-r001</text>
<circle cx="1244.4117647058824" cy="466.09892810262346" r="4" fill="#2563eb"/>
<circle cx="1244.4117647058824" cy="166.54995862961374" r="4" fill="#dc2626"/>
<text x="1290.5882352941178" y="498" text-anchor="end" font-size="10" fill="#111827" font-family="Arial" transform="rotate(-45 1290.5882352941178 498)">tsp_branch_bound-r002</text>
<circle cx="1290.5882352941178" cy="461.04863042247564" r="4" fill="#2563eb"/>
<circle cx="1290.5882352941178" cy="155.8244526977847" r="4" fill="#dc2626"/>
<text x="1336.764705882353" y="498" text-anchor="end" font-size="10" fill="#111827" font-family="Arial" transform="rotate(-45 1336.764705882353 498)">tsp_branch_bound-r003</text>
<circle cx="1336.764705882353" cy="464.2497029419633" r="4" fill="#2563eb"/>
<circle cx="1336.764705882353" cy="118.31706512880811" r="4" fill="#dc2626"/>
<text x="1382.9411764705883" y="498" text-anchor="end" font-size="10" fill="#111827" font-family="Arial" transform="rotate(-45 1382.9411764705883 498)">tsp_branch_bound-r004</text>
<circle cx="1382.9411764705883" cy="459.7350428945584" r="4" fill="#2563eb"/>
<circle cx="1382.9411764705883" cy="181.0504345445836" r="4" fill="#dc2626"/>
<text x="1429.1176470588236" y="498" text-anchor="end" font-size="10" fill="#111827" font-family="Arial" transform="rotate(-45 1429.1176470588236 498)">tsp_branch_bound-r005</text>
<circle cx="1429.1176470588236" cy="462.3494646734228" r="4" fill="#2563eb"/>
<circle cx="1429.1176470588236" cy="214.93589145406025" r="4" fill="#dc2626"/>
<text x="1475.294117647059" y="498" text-anchor="end" font-size="10" fill="#111827" font-family="Arial" transform="rotate(-45 1475.294117647059 498)">stochastic_tsp-r001</text>
<circle cx="1475.294117647059" cy="460.75530505216403" r="4" fill="#2563eb"/>
<circle cx="1475.294117647059" cy="128.7875055212358" r="4" fill="#dc2626"/>
<text x="1521.4705882352941" y="498" text-anchor="end" font-size="10" fill="#111827" font-family="Arial" transform="rotate(-45 1521.4705882352941 498)">stochastic_tsp-r002</text>
<circle cx="1521.4705882352941" cy="465.0021462831974" r="4" fill="#2563eb"/>
<circle cx="1521.4705882352941" cy="295.47283552005376" r="4" fill="#dc2626"/>
<text x="1567.6470588235295" y="498" text-anchor="end" font-size="10" fill="#111827" font-family="Arial" transform="rotate(-45 1567.6470588235295 498)">stochastic_tsp-r003</text>
<circle cx="1567.6470588235295" cy="460.47473295882247" r="4" fill="#2563eb"/>
<circle cx="1567.6470588235295" cy="107.27272727272731" r="4" fill="#dc2626"/>
<text x="1613.8235294117649" y="498" text-anchor="end" font-size="10" fill="#111827" font-family="Arial" transform="rotate(-45 1613.8235294117649 498)">stochastic_tsp-r004</text>
<circle cx="1613.8235294117649" cy="454.83778453805144" r="4" fill="#2563eb"/>
<circle cx="1613.8235294117649" cy="235.53243376072365" r="4" fill="#dc2626"/>
<text x="1660.0" y="498" text-anchor="end" font-size="10" fill="#111827" font-family="Arial" transform="rotate(-45 1660.0 498)">stochastic_tsp-r005</text>
<circle cx="1660.0" cy="463.5610259855795" r="4" fill="#2563eb"/>
<circle cx="1660.0" cy="335.81145057638594" r="4" fill="#dc2626"/>
<rect x="1500" y="50" width="14" height="14" fill="#2563eb"/>
<text x="1522" y="62" font-size="12" fill="#111827" font-family="Arial">LLM</text>
<rect x="1580" y="50" width="14" height="14" fill="#dc2626"/>
<text x="1602" y="62" font-size="12" fill="#111827" font-family="Arial">RLM</text>
</svg>